<svg width="128" height="128" viewBox="0 0 128 128" fill="none" xmlns="http://www.w3.org/2000/svg">
<g clip-path="url(#clip0_97:2)">
<path d="M30.2 45.9H54.3V47.8H32.4V62.2H53V64.1H32.4V79.9H54.6V81.8H30.2V45.9ZM56.5 45.9H59.1L70.5 61.7L82 45.9L97.8 25.9L71.8 63.4L85.2 81.8H82.5L70.4 65L58.2 81.8H55.6L69.1 63.4L56.5 45.9V45.9ZM86.2 47.8V45.9H113.7V47.8H101V81.8H98.8V47.8H86.2ZM0 45.9H2.7L40.9 102.7L25.1 81.8L2.3 48.6L2.2 81.8H0V45.9ZM113.5 79.3C114 79.3 114.3 79 114.3 78.5C114.3 78 114 77.7 113.5 77.7C113 77.7 112.7 78 112.7 78.5C112.7 79 113.1 79.3 113.5 79.3ZM115.7 77.2C115.7 78.5 116.7 79.4 118.1 79.4C119.6 79.4 120.5 78.5 120.5 76.9V71.4H119.3V76.9C119.3 77.8 118.9 78.2 118.1 78.2C117.4 78.2 116.9 77.8 116.9 77.1H115.7V77.2ZM122 77.1C122.1 78.5 123.2 79.4 125 79.4C126.8 79.4 128 78.5 128 77C128 75.8 127.3 75.2 125.8 74.8L124.9 74.6C123.9 74.4 123.5 74 123.5 73.5C123.5 72.8 124.1 72.3 125.1 72.3C126 72.3 126.6 72.7 126.7 73.5H127.9C127.8 72.2 126.7 71.3 125.1 71.3C123.4 71.3 122.3 72.2 122.3 73.6C122.3 74.7 122.9 75.4 124.3 75.7L125.3 75.9C126.3 76.1 126.8 76.5 126.8 77.1C126.8 77.8 126.1 78.3 125.1 78.3C124.1 78.3 123.3 77.8 123.2 77.1H122V77.1Z" fill="white" stroke="white"/>
</g>
<defs>
<clipPath id="clip0_97:2">
<rect width="128" height="128" fill="white"/>
</clipPath>
</defs>
</svg>
