<svg width="459" height="176" viewBox="0 0 459 176" fill="none" xmlns="http://www.w3.org/2000/svg">
<g opacity="0.5">
<path d="M31.0451 161.386C26.3784 158.029 21.8047 154.307 18.7608 149.347C14.6402 142.632 11.5353 135.481 8.36239 128.291C5.56749 121.958 3.07447 115.457 3.00173 108.438C2.91289 99.865 6.25343 91.6958 12.2634 85.5482C17.3226 80.3732 24.174 79.1232 31.071 80.8851C36.0716 82.1625 42.2285 85.7056 43.7687 90.9864C45.2179 95.9551 43.8616 102.53 41.1981 106.875C39.5057 109.635 37.0726 113.573 33.9386 115.013C32.7773 115.546 35.3897 112.896 36.2637 111.964C38.2699 109.824 40.788 108.32 43.3941 107.017C48.6999 104.364 54.0218 103.51 59.9282 104.059C73.9806 105.365 86.0892 113.128 89.1213 127.581C92.3723 143.078 86.4828 158.739 72.4838 166.759C65.9227 170.518 58.5846 173.289 50.9378 172.391C46.3036 171.847 41.7284 170.68 37.5555 168.593" stroke="#00c7ff" stroke-width="6" stroke-linecap="round"/>
<path d="M45.9267 90.4697C44.4592 87.1435 42.6719 83.7758 43.1365 80.0325C43.5843 76.4259 45.9103 73.6153 48.3035 71.0421C53.9487 64.972 62.3296 63.3943 70.2887 64.2993C78.4564 65.228 86.821 69.3218 92.0155 75.8344C94.1123 78.4632 95.5749 81.6574 97.26 84.5536C98.7517 87.1174 100.105 89.5546 100.98 92.4073C101.433 93.8846 102.427 96.0003 102.427 97.5613C102.427 97.8483 102.259 99.2706 102.685 99.0984C106.904 97.3928 109.942 95.3785 114.698 95.0166C121.315 94.5131 127.207 98.1923 130.729 103.684C132.664 106.703 133.685 110.241 134.888 113.592C136.123 117.031 137.724 120.852 137.949 124.545C138.305 130.367 137.002 137.641 132.33 141.635C128.636 144.794 122.276 145.1 117.695 144.309C111.303 143.205 108.537 139.193 105.372 134.014C104.69 132.898 104.109 131.718 103.383 130.63C103.106 130.215 102.96 128.998 102.608 129.351C102.069 129.889 104.607 135.113 104.829 135.809C105.728 138.618 106.478 141.632 106.715 144.58C107.125 149.673 105.203 154.22 99.8434 155.469C95.2495 156.54 90.4226 156.395 85.9186 155.108" stroke="#00c7ff" stroke-width="6" stroke-linecap="round"/>
<path d="M50.2881 131.617C50.9116 134.02 51.9165 140.789 55.366 141.199C57.7602 141.483 60.2005 139.829 61.3976 137.89C62.9581 135.362 61.4543 131.617 58.3531 131.617" stroke="#00c7ff" stroke-width="6" stroke-linecap="round"/>
<path d="M71.3818 81.78C71.8788 84.62 74.1839 91.4265 78.0567 87.8575C79.66 86.3799 79.3307 84.2915 78.8264 82.4004" stroke="#00c7ff" stroke-width="6" stroke-linecap="round"/>
<path d="M92.2685 78.335C92.203 69.068 93.8596 60.9421 99.7466 53.5622C105.682 46.1214 115.745 42.1847 125.005 41.4075C136.402 40.4509 146.902 43.3456 155.866 50.4739C164.572 57.3967 172.012 66.5607 176.536 76.7687C181.193 87.278 184.781 99.4756 181.455 110.983C180.383 114.69 177.897 117.97 175.686 121.042C173.735 123.753 171.626 126.915 168.991 129.072C167.046 130.664 163.835 132.086 161.314 132.248C153.494 132.753 148.461 125.578 145.498 119.277C144.879 117.961 143.888 116.175 143.888 114.667" stroke="#00c7ff" stroke-width="6" stroke-linecap="round"/>
<path d="M151.431 131.741C149.09 135.697 146.309 138.531 141.968 140.123C140.034 140.833 138.289 141.486 136.343 140.675" stroke="#00c7ff" stroke-width="6" stroke-linecap="round"/>
<path d="M125.822 72.3792C126.183 74.0915 126.517 79.6577 128.8 80.4309C130.081 80.8647 132.206 79.1662 132.804 78.1918C134.504 75.4226 133.016 72.309 130.587 70.7909" stroke="#00c7ff" stroke-width="6" stroke-linecap="round"/>
<path d="M160.829 50.2945C157.464 50.1581 155.881 49.4364 155.125 46.0891C154.244 42.1872 155.192 37.9734 156.355 34.2335C159.883 22.8938 175.048 17.8275 185.692 19.358C191.115 20.1378 197.776 22.8716 200.87 27.6346C204.915 33.8635 206.837 40.844 208.799 47.901C210.289 53.2572 212.111 58.5448 212.725 64.0962C213.003 66.605 213.081 69.164 213.575 71.6346" stroke="#00c7ff" stroke-width="6" stroke-linecap="round"/>
<path d="M212.771 53.1131C211.531 48.5315 210.761 44.4681 211.575 39.7476C212.019 37.1689 212.516 34.5133 213.241 31.9967C215.106 25.527 218.561 18.8402 223.978 14.6383C227.757 11.7075 232.582 10.5313 237.288 11.4842C243.872 12.8174 248.858 19.1324 251.705 24.7939C255.806 32.9501 257.991 40.8304 259.355 49.8361C260.098 54.7403 260.798 59.7055 260.552 64.678C260.238 71.0109 259.267 77.3222 258.293 83.5799C254.949 105.044 244.998 125.587 225.857 136.975C214.295 143.854 200.214 147.803 186.756 145.52C183.173 144.912 178.548 143.054 176.287 140.062C173.738 136.686 173.08 132.377 173.447 128.273C174.486 116.651 186.086 107.545 195.1 101.576C200.383 98.0771 206.138 94.6418 212.436 93.3999C215.209 92.8532 219.108 92.2104 221.831 93.3775" stroke="#00c7ff" stroke-width="6" stroke-linecap="round"/>
<path d="M257.186 100.977C262.432 104.85 267.096 106.886 273.649 106.886C281.899 106.886 289.538 104.438 296.159 99.5338C311.622 88.0791 312.495 68.0148 309.681 50.5703C307.392 36.3815 302.636 20.7401 288.518 14.3733C281.007 10.9859 274.376 11.2137 266.503 13.4938C265.466 13.794 256.531 17.2089 256.938 17.6164" stroke="#00c7ff" stroke-width="6" stroke-linecap="round"/>
<path d="M276.231 54.2258C276.514 55.4457 277.676 63.9927 280.684 62.8284C282.044 62.3017 283.03 60.2155 283.432 58.9531C284.323 56.1603 282.364 53.6286 281.179 51.2574" stroke="#00c7ff" stroke-width="6" stroke-linecap="round"/>
<path d="M306.151 36.9793C304.762 28.881 303.439 21.6906 308.565 14.5325C316.325 3.69768 331.602 0.860774 343.899 4.50414C358.507 8.83258 375.301 29.2805 361.492 43.09C354.715 49.8666 346.643 50.9501 337.554 50.9501C336.202 50.9501 340.258 50.6945 341.607 50.7776C343.988 50.9241 346.258 51.5677 348.519 52.2929C353.583 53.9175 358.482 56.6112 360.605 61.7669C362.152 65.5253 363.379 70.7253 360.309 74.1607C357.378 77.4406 351.761 76.7588 347.94 76.1812C346.747 76.0009 345.611 75.6647 344.441 75.3927C343.758 75.2338 348.681 74.324 349.319 74.2962C353.823 74.1004 358.609 75.2542 362.945 76.329C366.769 77.2768 370.649 78.5195 373.479 81.4048C378.373 86.3952 376.806 93.2437 373.171 98.628C367.618 106.853 357.861 110.327 348.556 112.229C337.071 114.577 325.858 113.833 316.598 106.069C313.277 103.285 310.111 99.8985 307.395 96.5213C305.863 94.6166 305.581 93.6296 305.929 91.31" stroke="#00c7ff" stroke-width="6" stroke-linecap="round"/>
<path d="M366.674 24.0475C368.077 18.8277 369.262 13.7109 373.24 9.85318C375.886 7.28737 378.864 5.16785 382.603 4.59741C391.718 3.20712 398.201 13.7414 401.779 20.5021C406.854 30.0921 409.578 40.9645 411.055 51.6872C411.207 52.7959 412.337 69.8889 412.515 69.8889" stroke="#00c7ff" stroke-width="6" stroke-linecap="round"/>
<path d="M411.841 45.1706C415.572 34.2701 420.385 24.226 428.42 15.8331C430.724 13.4264 433.584 11.0302 436.922 10.3027C439.913 9.65071 442.488 12.0208 444.3 14.1103C447.946 18.3147 449.495 23.2711 451.178 28.4794C453.214 34.7786 455.101 40.9376 455.685 47.5675C456.407 55.7625 455.855 64.1349 454.349 72.211C452.744 80.8195 451.051 89.98 446.859 97.7658C441.936 106.909 434.297 117.038 423.651 119.725C416.436 121.547 409.538 118.971 404.288 113.945C398.22 108.135 396.308 99.3676 394.426 91.5612C394.085 90.1459 393.441 86.2267 391.617 85.6188" stroke="#00c7ff" stroke-width="6" stroke-linecap="round"/>
<path d="M395.213 106.966C392.446 110.773 389.565 116.293 385.326 118.751C382.77 120.234 379.789 120.764 376.862 120.849C373.173 120.955 369.436 120.324 366.463 118.015C363.628 115.813 362.811 113.477 362.181 110.112" stroke="#00c7ff" stroke-width="6" stroke-linecap="round"/>
<path d="M163.974 40.4558C165.549 36.573 167.174 31.8127 171.62 30.5608C174.102 29.8619 176.674 29.4812 179.202 28.9866" stroke="#00c7ff" stroke-width="6" stroke-linecap="round"/>
<path d="M16.3868 95.9487C14.4788 99.2341 12.9158 102.452 12.8517 106.323C12.8041 109.197 13.311 112.148 14.0352 114.915C14.5567 116.908 15.1275 119.06 16.0948 120.894C16.9684 122.551 18.2543 123.97 19.4301 125.413" stroke="#00c7ff" stroke-width="6" stroke-linecap="round"/>
<path d="M129.857 121.034C129.708 125.319 129.029 128.611 126.25 132C125.521 132.889 124.611 133.702 123.729 134.447" stroke="#00c7ff" stroke-width="6" stroke-linecap="round"/>
<path d="M123.479 48.8278C126.008 48.4729 128.596 48.6348 131.129 48.9144C134.597 49.297 138.223 49.766 141.476 51.0753C144.427 52.2628 147.44 54.0338 149.658 56.3498C150.41 57.1347 151.164 57.936 151.893 58.7417C152.185 59.0636 152.354 59.3292 152.504 59.7397" stroke="#00c7ff" stroke-width="6" stroke-linecap="round"/>
<path d="M286.772 97.1764C289.69 95.9745 292.78 94.8737 294.993 92.5222C296.46 90.9632 297.713 89.1134 298.638 87.1849C299.936 84.4816 300.992 81.6234 302.213 78.8771" stroke="#00c7ff" stroke-width="6" stroke-linecap="round"/>
<path d="M326.763 11.7697C320.842 15.3745 313.897 20.0159 312.105 27.1822" stroke="#00c7ff" stroke-width="6" stroke-linecap="round"/>
<path d="M437.637 24.7533C440.061 25.8086 443.01 26.8602 444.734 28.9917C445.852 30.3738 446.151 32.6426 446.53 34.3022C447.363 37.9453 447.982 41.637 448.714 45.3003" stroke="#00c7ff" stroke-width="6" stroke-linecap="round"/>
</g>
</svg>
