<svg width="302" height="271" viewBox="0 0 302 271" fill="none" xmlns="http://www.w3.org/2000/svg">
<g opacity="0.5">
<path d="M83.8011 98.6755C89.3645 92.0242 94.9177 83.9502 104.038 82.1072C111.071 80.6861 119.501 83.1161 124.332 88.5843C131.308 96.4792 133.967 107.701 133.059 117.906C131.963 130.22 125.464 141.763 116.167 149.747C108.921 155.969 97.8799 160.38 88.2436 156.794C79.6766 153.606 73.6906 145.296 71.3336 136.759C70.0536 132.123 70.6279 127.483 71.8501 122.914C73.3897 117.157 75.7442 111.948 79.0022 106.99C83.4678 100.193 89.4691 92.1947 97.69 89.7528" stroke="#00c7ff" stroke-width="6" stroke-linecap="round"/>
<path d="M103.909 117.08C102.98 118.352 101.358 120.327 102.244 121.919C102.842 122.994 104.366 122.593 105.331 122.242C107.36 121.504 109.017 119.317 108.464 117.17" stroke="#00c7ff" stroke-width="6" stroke-linecap="round"/>
<path d="M133.527 118.664C134.831 112.024 136.472 104.647 141.513 99.683C146.369 94.9012 154.21 94.0003 160.045 97.135C167.262 101.013 171.793 107.106 176.327 113.761C181.795 121.786 185.598 130.221 185.738 140.18C185.878 150.187 182.866 160.356 177.126 168.637C174.655 172.201 171.675 176.144 167.782 178.218C163.863 180.306 159.738 181.161 155.396 180.655C146.322 179.599 137.136 176.127 129.787 170.707C126.346 168.17 123.902 164.623 121.235 161.328C119.283 158.917 117.635 157.033 117.053 153.908" stroke="#00c7ff" stroke-width="6" stroke-linecap="round"/>
<path d="M153.075 139.781C152.395 140.806 150.332 143.252 151.333 144.495C151.896 145.193 153.052 145.282 153.911 145.154C155.442 144.925 156.71 144.005 157.096 142.441" stroke="#00c7ff" stroke-width="6" stroke-linecap="round"/>
<path d="M184.084 123.8C185.156 121.369 186.182 118.634 188.461 117.069C190.303 115.805 192.381 114.945 194.428 114.076C200.072 111.681 205.845 113.225 211.257 115.47C217.455 118.042 224.876 120.595 228.906 126.351C232.616 131.652 231.308 137.503 227.811 142.475C224.865 146.665 220.254 148.802 215.206 148.861C214.044 148.875 212.883 148.665 211.728 148.683C210.599 148.7 213.871 149.246 214.169 149.323C218.527 150.456 223.891 152.414 226.767 156.029C229.002 158.838 229.368 162.254 226.685 164.849C223.75 167.688 220.377 168.814 216.311 168.679C214.708 168.626 213.191 168.345 211.763 167.598C211.5 167.461 210.193 166.803 211.106 166.821C216.251 166.919 222.107 169.307 226.263 172.264C230.993 175.629 232.785 180.192 231.498 185.898C230.312 191.156 225.919 196.965 221.438 199.837C215 203.963 207.973 203.986 200.697 202.149C193.753 200.397 187.75 197.077 182.506 192.212C179.678 189.588 176.721 186.498 174.774 183.136" stroke="#00c7ff" stroke-width="6" stroke-linecap="round"/>
<path d="M230.074 132.136C233.395 130.091 236.896 127.447 240.755 126.477C243.147 125.876 245.776 125.566 248.242 125.561C252.776 125.552 257.789 127.125 261.547 129.66C266.103 132.735 269.777 136.889 270.972 142.34C272.009 147.068 271.546 153.427 269.213 157.694C267.059 161.634 263.342 163.632 259.505 165.642C256.945 166.984 254.788 167.509 251.917 167.464C250.327 167.439 252.797 168.177 253.249 168.322C256.271 169.287 259.563 170.659 262.057 172.645C268.273 177.594 269.576 185.299 268.568 192.842C267.604 200.058 266.2 211.279 258.643 214.704C252.506 217.486 243.955 213.842 241.752 207.385C240.152 202.692 240.943 197.718 241.215 192.893C241.319 191.036 242.317 188.496 242.017 186.745" stroke="#00c7ff" stroke-width="6" stroke-linecap="round"/>
<path d="M239.827 204.42C235.442 206.614 230.909 208.762 225.81 208.032C222.99 207.628 221.308 205.719 219.762 203.469" stroke="#00c7ff" stroke-width="6" stroke-linecap="round"/>
<path d="M248.244 147.41C247.397 149.572 246.887 151.283 248.891 152.79C249.689 153.39 250.846 153.97 251.865 153.476C253.725 152.573 252.821 150.845 251.9 149.748" stroke="#00c7ff" stroke-width="6" stroke-linecap="round"/>
<path d="M80.6476 93.5302C79.2015 87.9584 77.9642 82.1687 75.2358 77.0577C73.7661 74.3047 71.7613 71.7665 69.656 69.4795C64.7146 64.1118 58.0992 61.4712 50.7778 61.5589C42.6405 61.6564 34.6499 66.3071 28.9282 71.8818C22.1955 78.4414 18.2986 87.4864 16.0844 96.4793C12.7224 110.134 14.2339 126.75 28.4749 133.39C35.8352 136.822 42.9152 136.44 50.687 134.811C55.1511 133.875 59.6163 132.925 63.9935 131.646C64.3731 131.535 64.9771 131.483 64.5675 131.037C62.6779 128.981 61.2734 126.321 59.6999 124.025C57.1399 120.288 54.3206 116.746 51.8155 112.973C50.3229 110.725 48.9183 108.43 47.2638 106.292C47.0301 105.99 46.0688 105.229 46.5441 105.011C50.5649 103.166 54.576 101.201 58.6516 99.4905C63.6129 97.4084 68.8866 95.9122 74.0658 94.5011C76.0607 93.9576 77.8544 93.7024 79.6263 92.5906" stroke="#00c7ff" stroke-width="6" stroke-linecap="round"/>
</g>
</svg>
