<svg width="76" height="77" viewBox="0 0 76 77" fill="none" xmlns="http://www.w3.org/2000/svg">
<path d="M11.183 37.5017C8.37303 43.8029 5.4166 50.154 3.31423 56.7414C2.55885 59.1082 3.13291 59.1347 5.38952 58.8743C10.0822 58.3329 14.6535 57.2582 19.3977 57.217C21.0837 57.2023 22.7371 57.4764 24.413 57.4764" stroke="#00c7ff" stroke-width="8" stroke-linecap="round"/>
<path d="M28.3047 3C29.328 9.90706 30.5419 16.4928 32.7435 23.1188C35.4611 31.2977 36.2077 39.6971 37.7876 48.1232C38.9858 54.5138 40.4652 60.8233 42.0247 67.1322C42.5582 69.2905 42.6659 71.8044 44.1288 73.5599" stroke="#00c7ff" stroke-width="8" stroke-linecap="round"/>
<path d="M49.5762 21.9371C55.7197 22.1411 61.8638 22.2513 67.9944 21.6777C68.4705 21.6332 72.9137 20.8459 72.7502 21.9083C72.5185 23.4147 71.202 24.8104 70.3579 25.9724C68.494 28.5383 66.7967 31.1942 65.0544 33.8412C63.7649 35.8002 61.7668 37.5052 60.7308 39.5771" stroke="#00c7ff" stroke-width="8" stroke-linecap="round"/>
</svg>
