<svg width="187" height="173" viewBox="0 0 187 173" fill="none" xmlns="http://www.w3.org/2000/svg">
<g opacity="0.4">
<path d="M104.019 4.22078C98.8793 6.21883 94.0275 8.88624 88.7476 10.5287C83.2119 12.2508 78.305 14.104 73.2654 17.034C68.2389 19.9565 62.7247 21.5554 57.5748 24.1777C56.9895 24.4757 58.4398 27.4617 58.6788 28.0075C59.1628 29.113 56.6446 29.3132 55.8596 29.5154C54.7682 29.7967 53.4492 29.8279 53.7315 31.0995C54.21 33.2552 55.3524 35.4799 56.2343 37.4939C57.2421 39.7957 58.3118 42.118 59.4859 44.3389C61.495 48.1388 63.4301 51.9678 65.4432 55.7643C66.2295 57.2471 67.2969 58.8232 67.6017 60.5C67.7654 61.4011 68.1933 62.3606 68.1629 63.2841C68.1197 64.5962 64.5612 65.8686 63.6869 66.338C62.7358 66.8486 61.718 67.2421 60.7293 67.675C59.9767 68.0045 60.7723 68.3827 61.1226 68.9125C61.5455 69.5521 63.2612 71.4644 62.4436 72.2686C62.0629 72.643 58.8661 74.5882 58.8708 75.0112C58.8884 76.5838 61.213 77.7554 61.0131 79.5647C60.8723 80.8393 57.5004 81.9653 56.5232 82.3932C55.3564 82.9041 56.7866 84.7391 57.1269 85.5163C57.5736 86.5364 57.7348 87.4553 56.6126 88.0243C55.5341 88.5712 51.9781 89.7192 51.6023 90.9966C51.3555 91.8355 52.7981 93.9457 53.1417 94.7305C53.4559 95.4479 53.7508 96.0082 53.6639 96.7952C53.5585 97.7491 49.4515 99.4354 48.6628 99.837C47.2072 100.578 45.2908 101.421 43.6724 101.643C43.1146 101.72 41.2194 97.6405 40.7675 96.9714C39.75 95.465 36.5635 100.041 35.2772 97.103C34.7935 95.9983 34.3022 93.9338 33.1245 93.301C32.2157 92.8128 29.7791 94.8605 28.9222 95.2357C28.4873 95.4261 27.9679 95.799 27.4907 95.6731C27.1973 95.5957 26.6745 92.6227 26.5722 92.267C25.8343 89.7012 25.1156 87.876 23.4561 85.8045C22.9081 85.1203 21.9404 85.1442 21.1719 85.3844C20.5976 85.5639 18.0469 86.0471 17.7847 86.7097C17.5842 87.2164 18.5398 88.9567 18.7253 89.3908C19.7041 91.6822 20.7086 93.9658 21.7247 96.241C23.4656 100.139 26.078 103.548 27.5922 107.558C28.9295 111.1 29.8037 114.652 30.8421 118.276C30.949 118.649 31.4141 121.418 31.9529 120.861C32.8011 119.984 33.556 119.339 34.6779 118.847C35.7242 118.389 36.3962 120.545 36.825 121.232C36.9925 121.5 37.9538 123.647 38.2912 123.514C39.6003 122.997 40.8551 122.416 42.1706 122.005C43.3174 121.647 44.5618 125.118 45.0306 125.823C45.6652 126.779 46.0315 126.28 47.0147 126.091C49.3269 125.647 51.0269 124.205 52.763 126.33C53.5271 127.266 54.513 128.564 55.0521 129.62C55.373 130.249 60.3067 126.961 61.0549 126.613C62.52 125.931 62.5115 128.754 63.2976 129.797C64.0958 130.856 64.6009 130.673 66.0237 130.402C66.5938 130.294 69.3293 129.085 69.703 129.938C70.7491 132.327 71.5599 134.8 72.6863 137.164C74.4037 140.768 76.1872 144.311 77.7907 147.973C78.8053 150.291 82.8883 147.919 84.4301 147.244C85.9455 146.581 87.0347 145.973 86.2827 144.255C85.842 143.249 85.4014 142.243 84.9608 141.236C84.555 140.309 83.4814 141.789 82.9232 142.034C82.0816 142.402 81.7159 142.157 81.4593 141.307C81.0552 139.968 80.2971 138.497 80.114 137.12C80.0695 136.785 82.557 135.945 83.0306 135.738C84.0147 135.307 83.12 133.358 83.0081 132.634C82.8343 131.509 82.4108 131.464 83.6307 130.93C84.9712 130.343 86.4029 130.285 87.7383 129.7C89.0281 129.135 87.6263 126.671 87.2937 125.729C86.5435 123.605 85.9078 122.854 88.1268 121.429C89.1065 120.8 90.4977 119.922 91.5005 120.752C92.8808 121.894 93.221 123.711 94.0019 125.253C94.2963 125.835 95.2066 125.49 95.5198 126.103C95.6156 126.291 96.9723 125.802 97.2411 125.771C98.8314 125.584 100.676 131.467 101.605 132.928C101.982 133.52 102.113 134.34 102.829 134.075C103.685 133.759 104.319 135.018 104.704 135.548C104.854 135.753 106.171 138.249 106.519 138.141C109.242 137.289 111.506 136.016 114.085 134.828C115 134.406 115.357 134.419 115.097 133.312C114.789 131.999 114.1 130.757 113.83 129.448C113.582 128.246 113.121 128.242 111.884 128.638C110.935 128.942 109.753 129.876 108.757 129.734C107.801 129.597 106.911 126.391 106.597 125.672C104.999 122.022 103.153 118.377 101.297 114.853C100.977 114.245 99.7734 111.959 100.003 111.243C100.445 109.864 101.779 108.631 103.077 107.846C103.814 107.4 104.599 107.492 104.557 106.429C104.513 105.301 103.829 104.089 103.38 103.063C102.877 101.913 107.674 100.587 108.591 99.9187C110.311 98.6658 106.204 95.457 107.092 94.726C108.085 93.9085 111.152 93.5224 111.092 92.1118C111.023 90.4938 110.166 88.471 109.523 87.0022C108.759 85.2573 107.995 83.5124 107.231 81.7674C106.74 80.6465 103.795 75.8883 104.709 74.6979C105.656 73.4629 107.062 72.7246 108.224 71.7278C109.471 70.6584 111.647 72.8275 112.324 73.6779C113.081 74.6294 112.845 75.189 114.161 74.5779C114.561 74.3918 117.126 72.9971 117.016 72.7173C116.332 70.9639 115.109 69.4973 114.309 67.8431C113.972 67.1453 113.744 65.9785 112.728 66.0736C110.504 66.282 108.369 67.2991 106.341 68.1548C104.935 68.7485 103.37 68.7936 101.968 69.312C101.847 69.3568 99.1934 62.1655 98.8412 61.2974C98.5709 60.6314 98.0114 59.4555 98.0515 58.7186C98.1108 57.627 100.858 56.7316 101.654 56.2368C103.186 55.2827 104.907 53.8834 106.627 53.3017C109.681 52.2688 112.494 50.7596 115.321 49.2214C115.914 48.899 119.631 47.3838 119.494 46.6371C119.305 45.6129 118.91 44.4784 118.383 43.5676C117.637 42.2769 113.253 44.6589 112.37 45.1696C110.156 46.4496 107.985 48.0597 105.502 48.8183C104.4 49.1551 103.396 49.3721 102.322 49.8422C100.982 50.4291 100.174 48.9004 99.6651 47.8918C99.2716 47.1117 98.7985 46.3728 98.4485 45.5736C98.1123 44.8055 99.9731 44.1037 100.522 43.719C104.227 41.1214 108.087 38.7941 112.501 37.7165C115.077 37.0875 117.261 36.2391 119.641 35.0532C121.224 34.2645 123.017 33.3443 124.383 32.2194C125.338 31.4328 123.343 27.8569 123.029 27.1417C121.337 23.2753 119.486 19.4844 117.79 15.6123C116.999 13.8053 116.047 12.067 115.261 10.2711C114.863 9.36196 114.426 7.34958 113.619 6.73978C111.931 5.46306 110.157 7.38405 108.296 7.63996C106.627 7.8693 106.162 5.18875 105.6 3.90719" stroke="#00c7ff" stroke-width="6" stroke-linecap="round"/>
<path d="M68.7969 33.9526C69.3601 34.9801 69.8019 36.115 70.3625 37.1241C70.5319 37.429 70.6126 37.4041 71.0271 37.365C72.0541 37.2681 74.658 37.2695 74.658 35.7146C74.658 35.0701 74.2932 34.5423 73.9354 34.0329C73.596 33.5498 73.2946 32.9341 72.8917 32.5074C72.5464 32.1419 72.2054 32.4506 71.7141 32.6412C70.9659 32.9315 70.1527 33.1944 69.4392 33.5512" stroke="#00c7ff" stroke-width="6" stroke-linecap="round"/>
<path d="M32.2373 169.593C42.6308 165.705 53.4954 162.899 64.0438 159.407C78.9246 154.481 93.298 148.108 107.336 141.207C119.712 135.122 132.229 128.674 145.049 123.574C146.809 122.874 154.26 121.318 154.692 119.157" stroke="#00c7ff" stroke-width="6" stroke-linecap="round"/>
<path d="M167.869 112.114C174.036 111.156 178.524 108.557 184 105.98" stroke="#00c7ff" stroke-width="6" stroke-linecap="round"/>
</g>
</svg>
