<svg width="902" height="308" viewBox="0 0 902 308" fill="none" xmlns="http://www.w3.org/2000/svg">
<path d="M753.934 32.2866C758.394 47.0358 761.642 62.8289 770.605 75.6336" stroke="#00c7ff" stroke-width="6" stroke-linecap="round"/>
<path d="M793.945 118.147C811.766 143.394 826.551 172.623 850.537 192.754C867.198 206.737 883.096 222.509 898.145 238.185" stroke="#00c7ff" stroke-width="6" stroke-linecap="round"/>
<path d="M160.283 34.9966C153.46 49.2168 146.202 63.3294 140.133 77.8964" stroke="#00c7ff" stroke-width="6" stroke-linecap="round"/>
<path d="M130.383 101.946C119.693 128.31 111.861 155.583 106.694 183.593C105.123 192.109 103.405 200.725 102.505 209.34C101.722 216.837 101.854 224.021 99.833 231.296" stroke="#00c7ff" stroke-width="6" stroke-linecap="round"/>
<path d="M231.782 10.2966C227.465 24.1347 225.863 37.5097 222.682 51.3909C220.929 59.0422 219.029 65.703 215.532 72.6964" stroke="#00c7ff" stroke-width="6" stroke-linecap="round"/>
<path d="M208.383 109.096C199.769 131.711 189.708 154.476 184.188 178.141C182.045 187.328 180.419 196.674 178.483 205.91C175.959 217.947 173.316 230.048 172.633 242.346" stroke="#00c7ff" stroke-width="6" stroke-linecap="round"/>
<path d="M302.632 97.3962L299.382 124.696" stroke="#00c7ff" stroke-width="6" stroke-linecap="round"/>
<path d="M292.882 169.546C285.206 200.489 278.338 231.814 269.627 262.496C268.785 265.459 267.527 268.172 266.232 270.946" stroke="#00c7ff" stroke-width="6" stroke-linecap="round"/>
<path d="M379.98 49.9465C382.324 60.2979 385.83 71.0742 385.83 81.7964" stroke="#00c7ff" stroke-width="6" stroke-linecap="round"/>
<path d="M388.433 118.846C389.468 173.103 389.514 230.941 367.633 281.996" stroke="#00c7ff" stroke-width="6" stroke-linecap="round"/>
<path d="M479.432 47.9966C482.44 72.9664 485.535 97.8665 483.657 123.035C483.368 126.896 483.252 129.779 481.382 133.146" stroke="#00c7ff" stroke-width="6" stroke-linecap="round"/>
<path d="M481.381 190.346C477.707 216.89 473.685 242.198 465.781 267.732C462.028 279.856 458.821 292.879 452.781 304.096" stroke="#00c7ff" stroke-width="6" stroke-linecap="round"/>
<path d="M586.037 42.71C588.37 49.2289 591.628 56.0416 592.774 62.9209" stroke="#00c7ff" stroke-width="6" stroke-linecap="round"/>
<path d="M600.123 99.6682C602.33 116.373 606.701 134.406 604.988 151.386C604.321 158.007 603.457 164.596 602.845 171.223C601.587 184.828 600 198.431 598.558 212.019C596.405 232.303 590.976 253.122 593.386 273.605" stroke="#00c7ff" stroke-width="6" stroke-linecap="round"/>
<path d="M677.904 28.6235C680.249 38.0389 681.779 47.9405 685.866 56.7964" stroke="#00c7ff" stroke-width="6" stroke-linecap="round"/>
<path d="M694.441 95.9934C699.301 125.423 702.756 155.879 713.768 183.88C719.096 197.43 726.799 209.739 734.251 222.159" stroke="#00c7ff" stroke-width="6" stroke-linecap="round"/>
<path d="M104.119 3C100.077 11.5582 96.1008 20.137 92.1855 28.7505" stroke="#00c7ff" stroke-width="6" stroke-linecap="round"/>
<path d="M70.8307 77.7395C65.5275 116.708 61.0347 158.303 42.7074 193.791C37.9784 202.949 33.9216 212.463 29.0297 221.531C25.2193 228.594 20.8559 235.586 16.0846 242.047C12.1471 247.38 6.89652 251.379 3 256.737" stroke="#00c7ff" stroke-width="6" stroke-linecap="round"/>
</svg>
