<svg width="1672" height="452" viewBox="0 0 1672 452" fill="none" xmlns="http://www.w3.org/2000/svg">
<path d="M764.764 179.939C767.952 204.2 768.905 226.766 768.905 250.99C768.905 260.905 768.905 270.908 768.905 280.706" stroke="#00c7ff" stroke-width="6" stroke-linecap="round"/>
<path d="M757.579 135.532C758.232 141.23 759.027 146.95 759.379 152.68C759.412 153.212 759.455 153.809 759.321 154.344" stroke="#00c7ff" stroke-opacity="0.5" stroke-width="6" stroke-linecap="round"/>
<path d="M823.986 139.155C824.665 155.535 825.234 171.892 825.234 188.281C825.234 193.558 826.066 198.786 826.066 204.04" stroke="#00c7ff" stroke-opacity="0.5" stroke-width="6" stroke-linecap="round"/>
<path d="M829.394 229.828C827.355 247.533 826.241 265.977 822.739 283.484" stroke="#00c7ff" stroke-width="6" stroke-linecap="round"/>
<path d="M897.191 118.774C898.419 131.249 900.564 143.985 900.08 156.578C899.936 160.314 899.309 164.016 899.271 167.762C899.259 168.931 900.562 175.111 899.271 175.757" stroke="#00c7ff" stroke-opacity="0.5" stroke-width="6" stroke-linecap="round"/>
<path d="M896.36 201.129C897.504 217.124 898.407 232.643 897.099 248.592C896.567 255.076 896.068 261.558 895.62 268.048C895.531 269.336 894.537 276.541 895.944 277.245" stroke="#00c7ff" stroke-width="6" stroke-linecap="round"/>
<path d="M965.82 113.367C966.654 119.36 967.816 125.541 967.9 131.622C967.917 132.815 968.147 134.001 967.484 134.996" stroke="#00c7ff" stroke-opacity="0.5" stroke-width="6" stroke-linecap="round"/>
<path d="M967.767 164.535C968.125 175.979 968.568 187.334 968.153 198.755C968.074 200.938 968.05 203.333 967.358 205.408" stroke="#00c7ff" stroke-width="6" stroke-linecap="round"/>
<path d="M968.176 229.523C968.448 242.144 969.22 254.82 969.22 267.444C969.22 269.729 969.301 272.742 968.585 274.892" stroke="#00c7ff" stroke-width="6" stroke-linecap="round"/>
<path d="M1043.69 220.705C1046.33 229.7 1050.27 238.555 1051.9 247.819C1052.95 253.718 1053.33 259.694 1055.23 265.401" stroke="#00c7ff" stroke-width="6" stroke-linecap="round"/>
<path d="M1013.62 115.847C1015.24 127.728 1016.51 139.027 1020.4 150.309C1021.62 153.84 1022.91 157.336 1024.15 160.86C1026.56 167.73 1028.72 174.036 1032.57 180.246C1036.18 186.058 1035.88 193.821 1039.59 199.398" stroke="#00c7ff" stroke-opacity="0.5" stroke-width="6" stroke-linecap="round"/>
<path d="M1084.88 154.814C1085.18 158.109 1084.61 164.06 1086.64 167.101" stroke="#00c7ff" stroke-opacity="0.5" stroke-width="6" stroke-linecap="round"/>
<path d="M1091.55 186.058C1100.03 206.271 1106.62 227.026 1112.26 248.195" stroke="#00c7ff" stroke-width="6" stroke-linecap="round"/>
<path d="M1151.69 196.164C1156.99 210.554 1162.66 224.851 1167.71 239.331C1169.2 243.612 1170.24 248.021 1171.66 252.322C1172.6 255.159 1173.63 257.996 1174.09 260.961C1174.22 261.81 1174.43 262.448 1174.94 263.129" stroke="#00c7ff" stroke-width="6" stroke-linecap="round"/>
<path d="M1186.12 131.201C1192.94 148.952 1201.27 166.087 1208.15 183.824C1210.54 189.969 1211.83 196.413 1213.82 202.676C1214.65 205.296 1216.71 208.527 1218.69 210.512" stroke="#00c7ff" stroke-opacity="0.5" stroke-width="6" stroke-linecap="round"/>
<path d="M1230.31 234.589C1231.77 239.489 1233.19 244.394 1234.56 249.318" stroke="#00c7ff" stroke-width="6" stroke-linecap="round"/>
<path d="M1261.82 159.183C1267.31 169.892 1273.51 180.072 1279.56 190.44C1282.61 195.649 1285.58 200.808 1288.23 206.231C1292.41 214.785 1297.44 222.906 1300.83 231.826" stroke="#00c7ff" stroke-opacity="0.5" stroke-width="6" stroke-linecap="round"/>
<path d="M1313.39 252.231L1320.21 266.693" stroke="#00c7ff" stroke-width="6" stroke-linecap="round"/>
<path d="M1310.57 115.652C1321.73 129.478 1331.92 143.63 1341.91 158.277C1346.38 164.836 1349.67 172.206 1353.56 179.121" stroke="#00c7ff" stroke-opacity="0.5" stroke-width="6" stroke-linecap="round"/>
<path d="M1377.26 203.625C1378.8 205.993 1384.09 211.655 1384.09 214.873" stroke="#00c7ff" stroke-width="6" stroke-linecap="round"/>
<path d="M1398.95 241.787C1408.9 254.673 1418.39 267.248 1422.25 283.163" stroke="#00c7ff" stroke-width="6" stroke-linecap="round"/>
<path d="M1399.3 122.928C1405.13 127.181 1412.24 130.883 1416.57 136.825" stroke="#00c7ff" stroke-opacity="0.5" stroke-width="6" stroke-linecap="round"/>
<path d="M1442.25 158.722C1454.39 170.863 1467.56 184.35 1474.26 200.412" stroke="#00c7ff" stroke-width="6" stroke-linecap="round"/>
<path d="M1491.81 102.204C1506.79 120.561 1523.21 138.134 1537.26 157.234C1544.88 167.608 1551.75 177.878 1561.53 186.384" stroke="#00c7ff" stroke-opacity="0.5" stroke-width="6" stroke-linecap="round"/>
<path d="M1483.47 225.009C1493.29 238.188 1503.97 250.739 1512.37 264.9C1517.77 274 1522.56 283.589 1526.39 293.45" stroke="#00c7ff" stroke-width="6" stroke-linecap="round"/>
<path d="M686.643 157.528C687.711 163.004 688.762 168.482 689.79 173.966" stroke="#00c7ff" stroke-opacity="0.5" stroke-width="6" stroke-linecap="round"/>
<path d="M693.638 199.846L695.736 213.486" stroke="#00c7ff" stroke-width="6" stroke-linecap="round"/>
<path d="M694.687 240.066C697.113 253.926 701.076 268.415 700.01 282.618C699.862 284.601 699.405 286.419 698.883 288.331" stroke="#00c7ff" stroke-width="6" stroke-linecap="round"/>
<path d="M622.144 283.246C621.231 266.671 619.901 250.039 619.901 233.427C619.901 228.86 620.063 224.257 619.801 219.695C619.567 215.607 619.186 211.391 618.106 207.433" stroke="#00c7ff" stroke-width="6" stroke-linecap="round"/>
<path d="M619.9 164.816L620.349 177.826" stroke="#00c7ff" stroke-opacity="0.5" stroke-width="6" stroke-linecap="round"/>
<path d="M553.059 143.732C552.047 150.791 550.638 157.733 549.47 164.742C549.336 165.544 549.021 166.239 549.021 167.059" stroke="#00c7ff" stroke-opacity="0.5" stroke-width="6" stroke-linecap="round"/>
<path d="M531.527 244.218C530.188 253.261 528.92 262.332 527.041 271.284C526.654 273.125 526.965 275.322 526.144 276.966" stroke="#00c7ff" stroke-width="6" stroke-linecap="round"/>
<path d="M547.676 190.386L544.536 206.536" stroke="#00c7ff" stroke-width="6" stroke-linecap="round"/>
<path d="M442.256 291.321C444.096 278.389 445.378 265.169 448.885 252.542C451.123 244.485 453.763 236.548 455.938 228.468C459.823 214.039 465.508 200.537 470.069 186.349" stroke="#00c7ff" stroke-width="6" stroke-linecap="round"/>
<path d="M481.283 154.947L492.498 142.386" stroke="#00c7ff" stroke-opacity="0.5" stroke-width="6" stroke-linecap="round"/>
<path d="M384.937 219.439C395.349 191.19 406.104 163.244 421.26 137.126C431.513 119.458 444.242 103.518 455.045 86.2325" stroke="#00c7ff" stroke-opacity="0.5" stroke-width="6" stroke-linecap="round"/>
<path d="M375.709 249C374.017 255.121 372.13 260.99 369.996 266.917" stroke="#00c7ff" stroke-width="6" stroke-linecap="round"/>
<path d="M297.295 275.159C304.22 255.731 311.497 236.453 319.007 217.26" stroke="#00c7ff" stroke-width="6" stroke-linecap="round"/>
<path d="M332.926 193.321C343.777 176.283 354.491 159.092 365.494 142.165C368.508 137.528 371.884 133.208 375.793 129.298" stroke="#00c7ff" stroke-opacity="0.5" stroke-width="6" stroke-linecap="round"/>
<path d="M274.209 125.052C269.507 132.643 265.214 141.369 259.359 148.199" stroke="#00c7ff" stroke-opacity="0.5" stroke-width="6" stroke-linecap="round"/>
<path d="M245.383 167.852C234.783 185.038 224.7 202.39 214.423 219.728C209.382 228.232 206.857 237.401 202.922 246.369C197.946 257.714 194.934 269.68 189.917 280.969" stroke="#00c7ff" stroke-width="6" stroke-linecap="round"/>
<path d="M210.881 88.365C200.109 100.643 190.043 113.191 182.444 127.575C179.56 133.034 175.822 138.144 173.515 143.88C172.151 147.271 171.324 151.032 168.953 153.877" stroke="#00c7ff" stroke-opacity="0.5" stroke-width="6" stroke-linecap="round"/>
<path d="M153.667 195.804C148.105 211.927 143.262 227.256 140.565 244.016C138.531 256.656 136.238 269.236 134.014 281.843" stroke="#00c7ff" stroke-width="6" stroke-linecap="round"/>
<path d="M146.746 51.1276C143.621 54.7893 140.005 58.4135 137.328 62.4294" stroke="#00c7ff" stroke-opacity="0.5" stroke-width="6" stroke-linecap="round"/>
<path d="M122.259 87.8585C108.591 111.412 83.1755 137.193 68.4961 171.5C23.9961 275.5 86.3954 345.686 82 359.5" stroke="#00c7ff" stroke-width="6" stroke-linecap="round"/>
<path d="M70.1494 19.0329L80.162 3.82861" stroke="#00c7ff" stroke-opacity="0.5" stroke-width="6" stroke-linecap="round"/>
<path d="M1665.5 380C1672 343.5 1665.5 262.5 1654.5 196.5C1645.84 144.588 1628.42 118.545 1620 108.5C1611.54 98.4196 1593.48 86.0201 1583.31 77.6975C1581.55 76.2614 1567.85 66.9445 1568.24 66.5549" stroke="#00c7ff" stroke-width="6" stroke-linecap="round"/>
<path d="M1543.98 46.9006C1535.74 41.4913 1527.55 36.6637 1518.97 31.9834" stroke="#00c7ff" stroke-opacity="0.5" stroke-width="6" stroke-linecap="round"/>
<path d="M30.0002 449C12.0011 323.5 -30.004 207.5 52.8063 40.7769" stroke="#00c7ff" stroke-width="6" stroke-linecap="round"/>
</svg>
