<svg width="85" height="87" viewBox="0 0 85 87" fill="none" xmlns="http://www.w3.org/2000/svg">
<g opacity="0.3">
<path d="M75.3838 18.7732C67.5818 17.7626 60.2274 15.5024 52.5413 13.916C44.0233 12.1579 35.8542 10.0426 27.5681 7.38632C23.698 6.14566 19.7875 4.80862 16.0896 3.10192C13.8854 2.0846 13.2842 8.99571 13.1112 9.92946C11.5356 18.4316 9.92496 26.9847 7.08554 35.1776C6.20243 37.7257 5.17916 40.2479 4.03835 42.6925C3.64828 43.5283 3.07484 44.4739 3.00734 45.4189C2.86069 47.472 4.94699 49.0378 6.03163 50.803C7.80068 53.6821 9.22659 56.7648 11.1408 59.5551C13.3574 62.786 15.8997 65.8088 18.0371 69.0861C20.075 72.2109 22.4025 75.1266 24.4064 78.2735C25.4292 79.8796 26.3657 81.5069 27.6025 82.9589C28.1355 83.5846 28.3331 83.9326 29.2063 83.9326C31.106 83.9326 33.2549 82.9322 35.0372 82.3975C38.9582 81.2212 42.802 79.802 46.699 78.5485C52.18 76.7853 57.7801 75.3512 63.2408 73.5309C64.3553 73.1594 65.3917 72.9398 66.3339 72.2593C69.7666 69.7802 70.4505 63.6003 71.6034 59.9446C74.4714 50.851 78.0432 41.9721 80.7794 32.8292C81.7625 29.5441 82.3454 25.901 81.776 22.4848" stroke="#00c7ff" stroke-width="6" stroke-linecap="round"/>
<path d="M64.0016 29.2932C59.0818 28.2722 54.284 26.8314 49.3845 25.7426C44.5246 24.6627 39.6629 23.6831 34.8256 22.5122C31.9164 21.808 28.679 21.4017 25.8981 20.2567C25.7719 20.2047 25.0683 19.8003 25.0032 20.1112C24.6024 22.0262 25.009 24.2968 24.945 26.252C24.853 29.0626 24.6335 31.8255 24.1228 34.5828C24.0559 34.9443 23.3889 36.643 23.5626 36.8601C24.3464 37.8399 25.9361 38.3188 27.0404 38.8028C32.2198 41.0724 37.533 42.9833 42.7853 45.0745C46.8421 46.6897 50.8493 48.5007 54.8196 50.3204C55.0324 50.418 56.784 50.9466 56.784 51.3608C56.784 51.564 55.9783 52.03 55.8964 52.0957C53.8788 53.7129 51.9504 55.4416 49.9302 57.0578C46.7218 59.6245 43.1259 61.6715 39.9841 64.3191C38.5723 65.5089 37.0549 66.5298 35.7132 67.7969C35.2684 68.2171 34.331 68.076 33.8797 67.7751C30.9521 65.8234 28.9966 62.4541 27.1132 59.5898C25.6878 57.422 24.4404 53.5823 21.9619 52.3431" stroke="#00c7ff" stroke-width="6" stroke-linecap="round"/>
</g>
</svg>
