<svg width="106" height="94" viewBox="0 0 106 94" fill="none" xmlns="http://www.w3.org/2000/svg">
<g opacity="0.3">
<path d="M65.3991 4.15089C57.8471 9.22349 50.562 14.5497 42.7571 19.2461C33.0629 25.0792 23.2004 30.6612 13.867 37.0693C10.4837 39.3922 7.16854 42.0392 4.21614 44.9007C3.13144 45.952 5.1357 48.081 5.64625 48.9815C9.43656 55.6668 13.3023 62.2709 16.896 69.0671C19.3341 73.6781 22.1495 78.5655 25.6691 82.4587C27.8759 84.8999 31.081 88.7434 34.7931 88.6988C41.768 88.6152 49.168 85.6416 55.7654 83.6759C65.0543 80.9082 74.2738 77.9938 83.4713 74.9342C84.8302 74.4822 101.678 68.9718 101.031 67.6176C95.414 55.8665 90.6018 43.6827 84.6941 32.084C81.0608 24.9506 76.1756 18.3014 70.2717 12.8464" stroke="#00c7ff" stroke-width="6" stroke-linecap="round"/>
<path d="M51.5274 58.1754C56.8124 55.2838 62.1555 52.1104 67.9222 50.2671" stroke="#00c7ff" stroke-width="6" stroke-linecap="round"/>
<path d="M58.3673 56.9741C60.6083 59.4841 62.3881 62.0883 63.9857 65.0204C64.6093 66.165 65.2437 67.0902 64.9022 68.4514C64.2253 71.1494 59.6915 75.2692 56.7649 73.5356" stroke="#00c7ff" stroke-width="6" stroke-linecap="round"/>
<path d="M82.3823 48.7646C79.185 48.947 76.0069 49.0539 74.0223 51.8746C73.1144 53.1648 72.1743 55.1204 72.5263 56.7402C73.1302 59.5192 79.4107 58.4738 81.2822 58.6072C83.1103 58.7374 90.6794 59.5713 89.1252 63.0828C87.8311 66.0065 82.9333 67.1682 80.0302 66.9613" stroke="#00c7ff" stroke-width="6" stroke-linecap="round"/>
</g>
</svg>
