<svg width="222" height="169" viewBox="0 0 222 169" fill="none" xmlns="http://www.w3.org/2000/svg">
<g opacity="0.3">
<path d="M147.302 95.358C149.698 91.0028 152.339 86.882 155.216 82.8175C159.691 76.4953 164.339 70.2088 169.267 64.2304C174.353 58.0592 179.901 52.4836 185.749 47.039C189.879 43.1935 194.418 39.577 199.521 37.0771C203.302 35.2246 209.491 33.1756 211.49 38.4437C212.372 40.7681 211.457 43.4762 210.38 45.5768C208.458 49.321 205.177 52.379 202.219 55.2933C194.107 63.283 185.699 70.9665 177.611 78.9833C171.635 84.9071 165.111 90.264 159.099 96.1571C157.385 97.8374 155.633 99.4565 153.698 100.88C152.756 101.573 151.978 102.14 150.778 102.178C149.452 102.219 148.597 101.765 147.893 100.609C147.391 99.7833 147.335 98.6041 146.697 97.8963" stroke="#00c7ff" stroke-width="6" stroke-linecap="round"/>
<path d="M148.905 104.537C149.355 106.941 149.288 108.722 148.532 111.08C147.633 113.886 145.784 116.196 143.324 117.751C141.118 119.146 138.761 120.077 136.188 120.544C133.85 120.968 131.614 121.427 129.251 120.984C126.235 120.418 122.954 118.635 120.927 116.305C120.039 115.285 119.502 113.93 118.927 112.718C118.379 111.564 117.987 110.436 118.056 109.146C118.189 106.655 119.808 104.585 122.308 104.198C123.381 104.032 124.531 104.53 125.499 104.941C126.55 105.387 127.469 105.442 128.585 105.231C132.121 104.561 133.447 100.767 136.543 99.3188C138.73 98.2953 141.08 97.5184 143.47 97.1553C145.047 96.9157 146.554 97.2175 148.085 97.0448" stroke="#00c7ff" stroke-width="6" stroke-linecap="round"/>
<path d="M72.6551 135.154C67.1783 137.129 61.6097 136.761 55.907 136.014C48.5605 135.051 40.8766 133.28 34.6657 129.124C26.4926 123.656 20.5514 114.913 17.3522 105.711C13.9892 96.0385 14.6518 84.6419 16.5432 74.7494C20.619 53.4309 42.6571 43.6565 62.3605 41.2402C71.8135 40.081 81.9185 41.5447 90.124 46.4881C97.0301 50.6487 102.854 57.2095 104.481 65.2927C105.904 72.359 104.459 78.6547 100.634 84.7324C97.6419 89.4873 92.3774 92.84 87.6162 95.6337C82.3272 98.7371 70.0521 104.726 75.8108 112.609C77.966 115.559 81.4526 117.289 84.2694 119.541C86.9375 121.674 88.0247 123.966 87.9583 127.404C87.8077 135.198 78.7206 136.677 72.7285 137.099" stroke="#00c7ff" stroke-width="6" stroke-linecap="round"/>
<path d="M78.4967 55.4872C73.1975 54.5448 65.2421 55.7196 64.4843 62.1232C64.181 64.6857 64.279 67.8374 66.4209 69.6733C68.8239 71.733 72.1571 72.2272 75.241 72.1121C80.2882 71.9236 85.1365 70.5459 85.3274 64.8251C85.498 59.7107 81.9641 56.6127 77.1808 55.5757" stroke="#00c7ff" stroke-width="6" stroke-linecap="round"/>
<path d="M50.1537 58.8426C45.7452 61.2476 41.1012 63.9787 42.3081 69.6683C43.2682 74.195 49.1663 76.8683 53.5201 75.5904C58.1018 74.2456 60.3285 70.6317 58.2627 66.2505C57.0419 63.6613 54.5035 60.1181 51.1578 60.8988" stroke="#00c7ff" stroke-width="6" stroke-linecap="round"/>
<path d="M29.2902 76.755C26.8807 80.1506 23.6414 83.9646 25.9708 88.1802C28.1193 92.0687 31.8356 93.0169 35.4468 90.4349C38.3656 88.3479 38.6383 84.343 37.7854 81.1294C37.3122 79.3465 35.7125 76.346 33.697 77.7852" stroke="#00c7ff" stroke-width="6" stroke-linecap="round"/>
<path d="M31.6678 105.923C29.8693 108.753 28.9299 112.464 30.6807 115.584C32.3483 118.555 36.3113 118.554 39.163 117.513C43.2227 116.033 43.3975 113.537 41.4461 110.039C40.3578 108.088 38.45 106.842 36.168 107.125" stroke="#00c7ff" stroke-width="6" stroke-linecap="round"/>
<path d="M73.3218 122.285C71.794 122.121 70.8052 121.647 70.3999 123.141C70.1131 124.199 70.0133 125.21 70.1488 126.301C70.3817 128.176 71.89 129.16 73.8469 129.204C75.4907 129.241 78.2667 128.632 77.9843 126.618C77.798 125.29 75.9776 124.368 75.4115 123.163" stroke="#00c7ff" stroke-width="6" stroke-linecap="round"/>
<path d="M74.0626 60.6324C75.0284 60.6882 78.8992 60.3045 79.7781 61.1748C80.39 61.7807 77.684 64.1531 77.4569 64.3483C75.9588 65.6357 72.1353 68.4767 70.1468 66.8672C66.5277 63.9377 75.056 56.1175 77.848 61.6536C80.0637 66.047 70.5384 67.9714 73.1467 62.1675C74.2046 59.8134 77.6046 58.1852 79.7591 59.9885C82.3063 62.1204 80.558 65.8908 78.2132 67.3413C75.0728 69.284 66.9306 64.6807 71.0923 60.7323C73.2487 58.6865 77.4837 58.0109 79.5143 60.525C82.2336 63.8918 80.1557 67.7639 76.745 69.3857C74.1278 70.6303 71.3786 70.52 70.6817 67.2621C69.8316 63.2886 71.2323 59.3924 75.3358 58.3836C78.3199 57.6499 82.0131 59.659 83.2017 62.6078C84.5169 65.8706 78.6603 67.9566 76.4975 67.8531C73.925 67.73 70.4749 66.4242 70.5451 63.2677C70.6132 60.2039 72.8318 56.5902 76.1158 57.2722C79.1099 57.894 81.4516 60.6147 79.7726 63.7823C77.9857 67.1535 73.7425 69.3625 70.1001 68.3194C66.9333 67.4126 68.4322 63.8231 70.0915 62.1228C72.3554 59.8029 77.3477 59.4812 79.5337 62.0885C81.2512 64.1372 78.1324 66.2522 76.3726 66.3378C74.7284 66.4177 70.4061 65.4002 71.9516 62.761C73.5084 60.1027 77.2172 59.3867 79.8051 60.4758C83.0424 61.8382 77.4414 63.1048 76.522 63.1561C75.5063 63.2127 71.0045 63.4026 72.1148 61.0563C72.685 59.8513 73.8969 58.9417 74.838 58.066C75.9593 57.0227 76.3665 56.8046 75.8632 58.7242C75.4848 60.1673 75.0937 63.4888 73.1604 63.6445C71.3162 63.7931 71.0515 60.8199 71.2833 59.4709C71.9515 55.582 77.4611 57.1319 76.6391 60.964" stroke="#00c7ff" stroke-width="6" stroke-linecap="round"/>
<path d="M71.1242 62.5237C72.2958 61.0911 73.5168 58.8963 75.5279 59.3323C76.898 59.6293 78.193 60.4763 77.1335 62.0379C75.8766 63.8906 71.4292 65.9075 69.4317 64.4894C67.1291 62.8546 69.2187 60.5125 70.9957 59.7865C73.523 58.7539 75.7696 60.751 73.4129 63.1103C72.8772 63.6466 70.826 64.9312 70.6425 63.3492C70.3913 61.1832 73.357 60.3825 74.8231 60.3337C75.6699 60.3055 73.1319 60.2433 72.2864 60.1981C72.1346 60.19 71.1721 60.2962 71.2321 59.9318C71.484 58.4043 72.815 57.3992 73.3005 56.0739" stroke="#00c7ff" stroke-width="6" stroke-linecap="round"/>
<path d="M48.7258 68.4229C51.0241 66.692 53.2835 64.0601 55.8742 66.7075C57.5197 68.389 56.4346 70.2487 55.0945 71.7492C54.2734 72.6686 53.0039 73.1955 52.2531 71.897C51.1751 70.0329 51.6014 67.4752 53.0087 65.8828C56.0097 62.4869 61.3699 68.9702 57.9365 71.5911C56.0182 73.0555 53.2318 72.8892 51.3766 71.4369C49.9249 70.3005 47.3497 67.4775 48.5887 65.5019C51.0241 61.6187 60.9718 64.2538 58.5499 69.0512C56.5561 73.0007 47.7479 74.8348 48.3728 68.528C48.5766 66.4702 49.5528 64.097 51.9935 63.7518C54.1333 63.4491 57.157 65.6969 56.7566 67.8705C56.2509 70.6147 53.3401 72.5585 50.5742 72.8405C48.3166 73.0707 45.595 71.1613 46.0021 68.8043C46.9186 63.4986 56.1961 60.9216 58.1599 67.0053C58.9047 69.3127 55.5159 70.775 53.738 71.1291C51.2358 71.6275 48.2667 71.6613 46.2935 69.8531C42.5585 66.4305 48.7896 58.6907 53.4674 60.142C59.2193 61.9264 53.7107 67.2962 50.2538 67.864C49.8374 67.9324 48.9031 68.0721 49.2577 67.4078C50.604 64.8855 53.9993 63.008 56.9254 64.3046C59.0276 65.2361 58.876 67.2817 57.0496 68.2788C55.1563 69.3123 52.7792 69.4901 50.7414 68.6959C49.1948 68.0932 49.9786 66.8911 51.0175 66.169C53.0263 64.7728 55.9759 64.9224 57.7456 66.6318C59.9843 68.7943 54.8296 70.0238 54.2413 67.6018" stroke="#00c7ff" stroke-width="6" stroke-linecap="round"/>
<path d="M31.2701 83.8236C32.8276 82.588 35.8026 79.2521 36.5596 82.8453C37.0729 85.2814 34.5057 89.0025 32.2679 89.7506C29.719 90.6028 28.3175 87.2588 28.192 85.2562C28.0667 83.258 29.2419 78.7226 31.7643 78.4491C33.638 78.2459 36.4781 79.9867 36.7718 81.974C37.0513 83.8657 35.1784 85.6799 33.3136 85.2882C27.4999 84.0671 32.3637 73.7796 37.2503 79.9926C39.0647 82.2996 38.3621 86.429 35.938 88.0869C33.2 89.9594 31.8157 87.1034 31.2069 84.6188C30.8656 83.2256 30.4629 79.8976 32.4213 79.3248C34.9056 78.5982 36.8135 82.1435 36.1245 84.209C35.5954 85.7951 32.7731 87.3396 31.2585 86.3658C29.1343 85 29.992 82.0823 31.4046 80.5314C32.6982 79.1111 35.0988 79.844 36.021 81.3034C36.7053 82.3865 34.6862 81.1447 34.4037 80.9648" stroke="#00c7ff" stroke-width="6" stroke-linecap="round"/>
<path d="M35.8671 112.871C36.1895 112.486 38.8371 108.446 39.5959 110.463C40.2809 112.284 37.4091 113.488 36.0238 113.128C34.5391 112.743 31.5167 110.496 33.4879 108.957C35.8569 107.108 37.9603 108.782 39.8395 110.29" stroke="#00c7ff" stroke-width="6" stroke-linecap="round"/>
<path d="M39.0441 116.332C37.141 115.344 36.2448 114.441 35.6049 112.387C35.4386 111.853 34.8074 109.703 35.4321 109.036C36.0883 108.336 36.9406 110.269 36.9416 110.619C36.9431 111.101 36.1458 112.366 35.8582 111.349C35.3066 109.399 36.4599 107.394 38.6798 107.308C40.0656 107.254 40.9264 108.676 40.8614 109.894C40.7763 111.487 39.005 112.565 37.5361 112.868C36.7561 113.029 35.3943 112.869 34.9386 112.099C34.2578 110.948 35.8107 109.58 36.4771 108.819" stroke="#00c7ff" stroke-width="6" stroke-linecap="round"/>
</g>
</svg>
