<svg width="397" height="453" viewBox="0 0 397 453" fill="none" xmlns="http://www.w3.org/2000/svg">
<path d="M54.9795 17.251C40.6936 34.4433 22.5212 50.54 16.2301 72.273C13.6185 81.2948 11.1418 89.3683 10.4068 98.7772C8.96738 117.201 11.0931 140.196 20.9104 156.357C30.9216 172.837 49.7185 188.29 67.1159 195.977C86.6726 204.619 112.178 212.913 126.111 229.992C141.218 248.51 147.923 271.841 150.982 295.246C152.945 310.26 155.775 325.972 160.833 340.254C166.142 355.243 173.396 373.412 182.766 386.296C211.077 425.224 250.155 447.956 299.232 440.774C332.337 435.929 360.529 416.878 393.166 410.514C426.233 404.067 458.594 410.409 489.931 420.855" stroke="black" stroke-width="20" stroke-linecap="round"/>
<path d="M124.361 10C103.231 34.0368 68.1146 58.299 76.5772 94.0297C79.8638 107.907 91.323 121.602 103.353 128.915C122.576 140.599 147.016 138.61 168.389 136.861C189.823 135.107 218.578 130.556 237.453 143.664C255.015 155.86 257.447 174.53 265.862 192.427C275.693 213.336 292.872 232.633 316.584 236.075C366.259 243.286 413.389 205.93 449.432 177.134C475.343 156.433 501.559 136.08 529.38 117.976C557.343 99.7797 586.309 83.2223 614.172 64.8588" stroke="black" stroke-width="20" stroke-linecap="round"/>
<path d="M54.9795 17.251C40.6936 34.4433 22.5212 50.54 16.2301 72.273C13.6185 81.2948 11.1418 89.3683 10.4068 98.7772C8.96738 117.201 11.0931 140.196 20.9104 156.357C30.9216 172.837 49.7185 188.29 67.1159 195.977C86.6726 204.619 112.178 212.913 126.111 229.992C141.218 248.51 147.923 271.841 150.982 295.246C152.945 310.26 155.775 325.972 160.833 340.254C166.142 355.243 173.396 373.412 182.766 386.296C211.077 425.224 250.155 447.956 299.232 440.774C332.337 435.929 360.529 416.878 393.166 410.514C426.233 404.067 458.594 410.409 489.931 420.855" stroke="#00c7ff" stroke-width="6" stroke-linecap="round"/>
<path d="M124.361 10C103.231 34.0368 68.1146 58.299 76.5772 94.0297C79.8638 107.907 91.323 121.602 103.353 128.915C122.576 140.599 147.016 138.61 168.389 136.861C189.823 135.107 218.578 130.556 237.453 143.664C255.015 155.86 257.447 174.53 265.862 192.427C275.693 213.336 292.872 232.633 316.584 236.075C366.259 243.286 413.389 205.93 449.432 177.134C475.343 156.433 501.559 136.08 529.38 117.976C557.343 99.7797 586.309 83.2223 614.172 64.8588" stroke="#00c7ff" stroke-width="6" stroke-linecap="round"/>
</svg>
