<svg width="299" height="78" viewBox="0 0 299 78" fill="none" xmlns="http://www.w3.org/2000/svg">
<rect x="0.5" y="0.5" width="298" height="77" rx="19.5" fill="#000a1f"/>
<path opacity="0.5" d="M42.4533 37.3693C40.9544 38.0124 39.2534 38.7416 37.0488 38.7416C36.1266 38.7397 35.2088 38.6129 34.3204 38.3646L35.8452 54.0544C35.8991 54.71 36.1972 55.3215 36.6802 55.7672C37.1632 56.2129 37.7957 56.4601 38.4523 56.4601C38.4523 56.4601 40.6142 56.5726 41.3356 56.5726C42.112 56.5726 44.44 56.4601 44.44 56.4601C45.0965 56.4601 45.7289 56.2126 46.2118 55.7669C46.6946 55.3212 46.9926 54.71 47.0466 54.0544L48.6797 36.7166C47.9499 36.4668 47.2133 36.3008 46.383 36.3008C44.947 36.3002 43.79 36.7959 42.4533 37.3693Z" fill="#00c7ff"/>
<path d="M55.8707 29.2127L55.6397 28.0484C55.4324 27.0037 54.9619 26.0166 53.8889 25.6391C53.5449 25.5183 53.1546 25.4664 52.8909 25.2164C52.6271 24.9664 52.5492 24.5781 52.4882 24.218C52.3752 23.5571 52.2691 22.8956 52.1533 22.2359C52.0533 21.6687 51.9742 21.0315 51.7139 20.5112C51.375 19.8125 50.6719 19.4039 49.9727 19.1335C49.6144 18.9999 49.2488 18.8868 48.8776 18.7949C47.1307 18.3344 45.294 18.1651 43.4969 18.0686C41.3399 17.9496 39.177 17.9855 37.0251 18.1758C35.4234 18.3214 33.7364 18.4975 32.2143 19.0511C31.658 19.2538 31.0847 19.497 30.6617 19.9265C30.1427 20.4542 29.9733 21.2703 30.3522 21.9283C30.6216 22.3956 31.078 22.7258 31.562 22.9442C32.1924 23.2256 32.8509 23.4398 33.5263 23.5831C35.407 23.9985 37.3549 24.1615 39.2763 24.231C41.4059 24.3168 43.5389 24.2472 45.6583 24.0227C46.1824 23.9651 46.7056 23.8961 47.2278 23.8156C47.8429 23.7213 48.2377 22.9177 48.0564 22.3578C47.8395 21.6885 47.2566 21.4289 46.5976 21.5299C46.5004 21.5451 46.4038 21.5592 46.3067 21.5733L46.2367 21.5835C46.0134 21.6117 45.7901 21.638 45.5668 21.6625C45.1056 21.7122 44.6432 21.7528 44.1797 21.7844C43.1416 21.8566 42.1008 21.8899 41.0605 21.8916C40.0382 21.8916 39.0154 21.8628 37.9954 21.7957C37.53 21.7652 37.0658 21.7265 36.6026 21.6794C36.392 21.6574 36.1819 21.6343 35.9718 21.6083L35.7718 21.5829L35.7284 21.5767L35.5211 21.5468C35.0975 21.483 34.6739 21.4097 34.2549 21.321C34.2126 21.3117 34.1747 21.2882 34.1476 21.2544C34.1205 21.2206 34.1057 21.1787 34.1057 21.1354C34.1057 21.0921 34.1205 21.0501 34.1476 21.0163C34.1747 20.9826 34.2126 20.9591 34.2549 20.9497H34.2628C34.6259 20.8724 34.9919 20.8063 35.359 20.7488C35.4814 20.7296 35.6041 20.7108 35.7272 20.6923H35.7306C35.9605 20.6771 36.1915 20.6359 36.4202 20.6088C38.4103 20.402 40.4122 20.3314 42.412 20.3977C43.3828 20.426 44.3531 20.483 45.3194 20.5812C45.5273 20.6026 45.734 20.6252 45.9407 20.6506C46.0198 20.6602 46.0994 20.6715 46.1791 20.6811L46.3394 20.7042C46.8071 20.7738 47.2723 20.8583 47.735 20.9576C48.4207 21.1066 49.3011 21.1551 49.6061 21.9057C49.7033 22.1439 49.7473 22.4086 49.801 22.6586L49.8693 22.9775C49.8711 22.9832 49.8724 22.9891 49.8733 22.995C50.0348 23.7475 50.1965 24.5 50.3584 25.2525C50.3703 25.3081 50.3705 25.3655 50.3592 25.4212C50.3479 25.4769 50.3252 25.5297 50.2926 25.5762C50.2599 25.6228 50.218 25.6621 50.1695 25.6918C50.121 25.7214 50.0669 25.7407 50.0105 25.7486H50.006L49.9071 25.7621L49.8095 25.7751C49.4999 25.8154 49.1901 25.853 48.8798 25.888C48.2687 25.9576 47.6567 26.0178 47.0437 26.0686C45.8257 26.1698 44.6052 26.2362 43.3822 26.2678C42.7591 26.2843 42.1362 26.2921 41.5134 26.2909C39.0346 26.289 36.5579 26.145 34.0956 25.8597C33.829 25.8281 33.5624 25.7943 33.2958 25.7599C33.5026 25.7864 33.1456 25.7395 33.0733 25.7294C32.9039 25.7057 32.7345 25.681 32.565 25.6555C31.9963 25.5702 31.431 25.4652 30.8634 25.3732C30.1772 25.2604 29.5209 25.3168 28.9002 25.6555C28.3907 25.9341 27.9783 26.3613 27.7181 26.8801C27.4504 27.4332 27.3708 28.0354 27.251 28.6297C27.1313 29.224 26.9449 29.8634 27.0155 30.4735C27.1674 31.7902 28.0886 32.8602 29.4136 33.0995C30.66 33.3253 31.9133 33.5081 33.1699 33.6639C38.1063 34.268 43.0933 34.3403 48.0451 33.8795C48.4483 33.8419 48.851 33.8009 49.2531 33.7565C49.3787 33.7427 49.5058 33.7571 49.6251 33.7988C49.7444 33.8404 49.8528 33.9082 49.9425 33.9972C50.0322 34.0861 50.1008 34.194 50.1433 34.3129C50.1859 34.4318 50.2013 34.5587 50.1884 34.6843L50.063 35.9022C49.8104 38.3632 49.5577 40.8241 49.3051 43.2848C49.0415 45.8689 48.7763 48.4528 48.5093 51.0363C48.434 51.7641 48.3587 52.4916 48.2834 53.2188C48.2111 53.9352 48.201 54.6738 48.0648 55.3817C47.8502 56.4946 47.0962 57.1781 45.9961 57.4281C44.9881 57.6573 43.9584 57.7777 42.9248 57.7869C41.7788 57.7931 40.6335 57.7423 39.4875 57.7485C38.2642 57.7554 36.7659 57.6426 35.8216 56.7327C34.9919 55.9337 34.8772 54.6824 34.7643 53.6003C34.6137 52.1679 34.4644 50.7358 34.3164 49.3038L33.4862 41.3411L32.9491 36.1889C32.94 36.1037 32.931 36.0196 32.9225 35.9338C32.8581 35.3192 32.4227 34.7176 31.7365 34.7486C31.1491 34.7746 30.4816 35.2735 30.5505 35.9338L30.9486 39.7535L31.7721 47.6547C32.0067 49.899 32.2407 52.1436 32.4741 54.3888C32.5193 54.8188 32.5616 55.2501 32.6091 55.6801C32.8672 58.0303 34.6632 59.2967 36.8873 59.6532C38.1863 59.8622 39.5169 59.9051 40.8351 59.9264C42.5249 59.9537 44.2317 60.0186 45.8938 59.7126C48.3568 59.2609 50.2048 57.6176 50.4685 55.0684C50.5439 54.3324 50.6192 53.5963 50.6944 52.86C50.9448 50.4249 51.1948 47.9896 51.4445 45.5541L52.2612 37.5965L52.6356 33.9495C52.6543 33.7686 52.7307 33.5986 52.8536 33.4645C52.9764 33.3305 53.1392 33.2395 53.3179 33.2051C54.0221 33.0679 54.6954 32.8337 55.1963 32.2981C55.9938 31.4454 56.1525 30.3335 55.8707 29.2127ZM29.3774 29.9994C29.3882 29.9944 29.3684 30.0863 29.3599 30.1292C29.3582 30.0643 29.3616 30.0068 29.3774 29.9994ZM29.4458 30.5277C29.4514 30.5237 29.4684 30.5463 29.4859 30.5734C29.4593 30.5485 29.4424 30.5299 29.4452 30.5277H29.4458ZM29.513 30.6163C29.5373 30.6575 29.5502 30.6835 29.513 30.6163V30.6163ZM29.648 30.7258H29.6513C29.6513 30.7297 29.6576 30.7337 29.6598 30.7376C29.6561 30.7333 29.6519 30.7293 29.6474 30.7258H29.648ZM53.2851 30.5621C53.0321 30.8025 52.6508 30.9143 52.2741 30.9702C48.0496 31.5966 43.7635 31.9138 39.4926 31.7738C36.436 31.6694 33.4117 31.3302 30.3856 30.903C30.089 30.8612 29.7677 30.807 29.5638 30.5886C29.1798 30.1766 29.3684 29.347 29.4684 28.8492C29.5598 28.3932 29.7349 27.7854 30.2777 27.7205C31.1249 27.6212 32.1087 27.9784 32.9468 28.1054C33.9559 28.2593 34.9687 28.3825 35.9853 28.4751C40.324 28.8701 44.7355 28.8086 49.0549 28.2307C49.8422 28.1249 50.6267 28.0021 51.4083 27.8621C52.1047 27.7374 52.8768 27.5032 53.2975 28.2239C53.5861 28.7149 53.6245 29.3718 53.5799 29.9266C53.5662 30.1683 53.4605 30.3957 53.2845 30.5621H53.2851Z" fill="#00c7ff"/>
<path d="M75.96 47.572C75.0213 47.572 74.3467 47.3007 73.936 46.758C73.5253 46.2007 73.32 45.3793 73.32 44.294C73.32 43.194 73.782 40.092 74.706 34.988L73.54 32.634C75.1973 31.5633 76.708 31.028 78.072 31.028C78.9813 31.028 79.524 31.468 79.7 32.348C81.2107 31.4827 82.692 31.05 84.144 31.05C85.0973 31.05 85.9333 31.27 86.652 31.71C87.5027 32.2233 87.928 33.1107 87.928 34.372C87.928 36.4547 86.7767 37.9653 84.474 38.904C86.8207 39.3147 87.994 40.6273 87.994 42.842C87.994 44.2793 87.4 45.4233 86.212 46.274C85.024 47.1247 83.6893 47.55 82.208 47.55C80.7413 47.55 79.5607 47.242 78.666 46.626C77.8007 47.2567 76.8987 47.572 75.96 47.572ZM82.912 42.358C82.912 41.6687 82.7067 41.1627 82.296 40.84C81.9 40.5173 81.3647 40.356 80.69 40.356C80.0153 40.356 79.26 40.4953 78.424 40.774C78.1893 42.0207 78.072 43.084 78.072 43.964C78.7907 44.3013 79.5387 44.47 80.316 44.47C81.0933 44.47 81.7167 44.2867 82.186 43.92C82.67 43.5533 82.912 43.0327 82.912 42.358ZM81.482 33.954C80.91 33.954 80.294 34.064 79.634 34.284C79.546 34.856 79.2747 36.3227 78.82 38.684C80.0373 38.596 81.0713 38.3027 81.922 37.804C82.7727 37.2907 83.198 36.5573 83.198 35.604C83.198 34.504 82.626 33.954 81.482 33.954ZM93.5564 47.55C92.2657 47.55 91.3637 47.2347 90.8504 46.604C90.3371 45.9733 90.0804 45.1813 90.0804 44.228C90.0804 43.26 90.2417 41.94 90.5644 40.268C90.8871 38.596 91.0484 37.386 91.0484 36.638C91.0484 35.89 90.8944 35.3033 90.5864 34.878C91.9504 34.1593 93.1017 33.8 94.0404 33.8C94.6417 33.8 95.0744 33.9247 95.3384 34.174C95.6171 34.4087 95.7564 34.7973 95.7564 35.34C95.7564 35.8827 95.5291 37.2173 95.0744 39.344C94.6344 41.456 94.4144 42.7613 94.4144 43.26C94.4144 43.7587 94.5537 44.1547 94.8324 44.448C95.1111 44.7267 95.4777 44.866 95.9324 44.866C96.3871 44.866 96.8711 44.69 97.3844 44.338C97.8977 43.9713 98.3157 43.458 98.6384 42.798C98.8437 41.61 99.2471 39.7327 99.8484 37.166L98.5284 35.406C100.01 34.3353 101.418 33.8 102.752 33.8C103.412 33.8 103.882 33.9247 104.16 34.174C104.454 34.4087 104.6 34.7753 104.6 35.274C104.6 35.758 104.329 37.1587 103.786 39.476C103.258 41.7933 102.994 43.4433 102.994 44.426C102.994 45.394 103.222 46.076 103.676 46.472C102.855 47.1907 101.99 47.55 101.08 47.55C100.186 47.55 99.5404 47.352 99.1444 46.956C98.7484 46.56 98.5504 46.0393 98.5504 45.394L98.3304 45.284C97.8464 45.988 97.1717 46.5453 96.3064 46.956C95.4557 47.352 94.5391 47.55 93.5564 47.55ZM112.755 46.56C112.066 46.8093 111.377 46.934 110.687 46.934C109.998 46.934 109.419 46.7287 108.949 46.318C108.48 45.9073 108.209 45.35 108.135 44.646C108.062 43.942 107.996 42.9227 107.937 41.588C107.879 40.2387 107.82 39.2853 107.761 38.728C107.571 36.8653 106.984 35.538 106.001 34.746C106.691 34.1153 107.556 33.8 108.597 33.8C109.169 33.8 109.668 33.954 110.093 34.262C110.519 34.5553 110.856 34.9513 111.105 35.45C111.369 35.934 111.582 36.5647 111.743 37.342C111.993 38.6327 112.117 40.378 112.117 42.578C112.117 43.1207 112.095 43.7587 112.051 44.492H113.327C114.838 40.4147 115.593 37.6353 115.593 36.154C115.593 35.6553 115.483 35.186 115.263 34.746C116.29 34.1153 117.185 33.8 117.947 33.8C119.37 33.8 120.081 34.6213 120.081 36.264C120.081 37.5693 119.48 39.8647 118.277 43.15C118.057 43.7513 117.933 44.1033 117.903 44.206C116.041 49.5153 113.393 52.17 109.961 52.17C108.92 52.17 108.062 51.9427 107.387 51.488C106.713 51.048 106.375 50.4613 106.375 49.728C106.375 49.0093 106.647 48.254 107.189 47.462C107.893 48.4593 108.773 48.958 109.829 48.958C110.431 48.958 110.988 48.76 111.501 48.364C112.029 47.968 112.447 47.3667 112.755 46.56ZM145.626 47.572C144.672 47.572 143.99 47.3007 143.58 46.758C143.169 46.2007 142.964 45.3867 142.964 44.316C142.964 43.2453 143.308 40.7813 143.998 36.924H143.646C142.751 38.0973 142.01 39.498 141.424 41.126C140.837 42.754 140.478 44.2207 140.346 45.526C139.627 46.2007 138.798 46.538 137.86 46.538C137.478 46.538 137.141 46.406 136.848 46.142C136.569 45.8633 136.29 45.3867 136.012 44.712C135.469 43.348 135.08 40.752 134.846 36.924H134.494C133.775 40.0773 133.416 42.2993 133.416 43.59C133.416 44.8807 133.636 45.878 134.076 46.582C133.196 47.242 132.279 47.572 131.326 47.572C130.372 47.572 129.69 47.3007 129.28 46.758C128.869 46.2007 128.664 45.3793 128.664 44.294C128.664 43.194 129.126 40.092 130.05 34.988L128.884 32.634C130.541 31.5633 132.052 31.028 133.416 31.028C134.017 31.028 134.523 31.094 134.934 31.226C135.359 31.3433 135.762 31.578 136.144 31.93C136.54 32.282 136.862 32.7733 137.112 33.404C137.684 34.8267 138.094 36.902 138.344 39.63H138.608C139.37 37.386 140.426 35.4573 141.776 33.844C142.509 32.9787 143.382 32.2967 144.394 31.798C145.42 31.2993 146.528 31.05 147.716 31.05C148.845 31.05 149.41 31.732 149.41 33.096C149.41 33.5507 149.124 35.2447 148.552 38.178C147.994 41.0967 147.716 42.8347 147.716 43.392C147.716 44.8147 147.936 45.878 148.376 46.582C147.496 47.242 146.579 47.572 145.626 47.572ZM157.421 47.55C155.411 47.55 153.857 47.0293 152.757 45.988C151.671 44.9467 151.129 43.5387 151.129 41.764C151.129 39.4027 151.935 37.4887 153.549 36.022C155.177 34.5407 157.215 33.8 159.665 33.8C161.029 33.8 162.063 34.108 162.767 34.724C163.471 35.3253 163.823 36.1247 163.823 37.122C163.823 38.486 163.155 39.6227 161.821 40.532C160.501 41.4267 158.455 41.8813 155.683 41.896C155.727 42.8347 155.939 43.5753 156.321 44.118C156.702 44.646 157.179 44.91 157.751 44.91C158.323 44.91 158.814 44.7193 159.225 44.338C159.65 43.9567 159.863 43.3333 159.863 42.468C162.004 42.468 163.075 42.974 163.075 43.986C163.075 44.8513 162.547 45.6653 161.491 46.428C160.435 47.176 159.078 47.55 157.421 47.55ZM159.291 36.374C158.543 36.374 157.853 36.748 157.223 37.496C156.607 38.244 156.159 39.124 155.881 40.136C157.347 40.0187 158.447 39.6887 159.181 39.146C159.929 38.5887 160.303 38.002 160.303 37.386C160.303 37.0927 160.207 36.8507 160.017 36.66C159.841 36.4693 159.599 36.374 159.291 36.374ZM180.587 44.294L180.367 44.184C179.971 45.24 179.399 46.0687 178.651 46.67C177.918 47.2567 177.097 47.55 176.187 47.55C174.941 47.55 173.943 47.0807 173.195 46.142C172.447 45.2033 172.073 43.9493 172.073 42.38C172.073 39.9453 172.887 37.9067 174.515 36.264C176.158 34.6213 178.197 33.8 180.631 33.8C181.262 33.8 181.841 33.8587 182.369 33.976C182.457 34.3867 182.509 34.746 182.523 35.054C183.257 34.5847 184.012 34.35 184.789 34.35C185.86 34.35 186.395 34.9293 186.395 36.088C186.395 36.4987 186.161 37.738 185.691 39.806C185.237 41.874 185.009 43.4067 185.009 44.404C185.009 45.4013 185.237 46.0907 185.691 46.472C184.87 47.1907 184.012 47.55 183.117 47.55C182.237 47.55 181.592 47.286 181.181 46.758C180.785 46.23 180.587 45.4087 180.587 44.294ZM176.209 41.302C176.209 42.0207 176.356 42.578 176.649 42.974C176.957 43.3553 177.39 43.546 177.947 43.546C178.505 43.546 179.055 43.3407 179.597 42.93C180.14 42.5193 180.595 41.9547 180.961 41.236C181.093 39.7547 181.379 38.002 181.819 35.978C180.338 35.978 179.033 36.5133 177.903 37.584C176.774 38.6547 176.209 39.894 176.209 41.302ZM194.648 40.246C194.648 39.2193 194.868 38.178 195.308 37.122C195.748 36.0513 196.372 35.0613 197.178 34.152C197.985 33.2427 199.034 32.502 200.324 31.93C201.63 31.3433 202.972 31.05 204.35 31.05C205.744 31.05 206.829 31.3067 207.606 31.82C208.398 32.3333 208.794 33.0447 208.794 33.954C208.794 34.8633 208.494 35.5747 207.892 36.088C207.306 36.5867 206.631 36.836 205.868 36.836C205.106 36.836 204.416 36.6747 203.8 36.352C203.199 36.0147 202.715 35.538 202.348 34.922C201.556 35.3033 200.874 36.0513 200.302 37.166C199.73 38.2807 199.444 39.4027 199.444 40.532C199.444 41.6467 199.628 42.534 199.994 43.194C200.361 43.8393 200.882 44.162 201.556 44.162C202.231 44.162 202.825 43.8173 203.338 43.128C203.866 42.4387 204.13 41.61 204.13 40.642C205.612 40.642 206.668 40.7593 207.298 40.994C207.944 41.2287 208.266 41.7347 208.266 42.512C208.266 43.7293 207.606 44.8733 206.286 45.944C204.966 47.0147 203.309 47.55 201.314 47.55C199.32 47.55 197.706 46.934 196.474 45.702C195.257 44.47 194.648 42.6513 194.648 40.246ZM220.842 35.472C221.663 35.472 222.367 35.802 222.954 36.462C223.555 37.122 223.856 38.0827 223.856 39.344C223.856 40.5907 223.636 41.7493 223.196 42.82C222.756 43.876 222.177 44.7413 221.458 45.416C220.739 46.0907 219.925 46.6187 219.016 47C218.107 47.3667 217.175 47.55 216.222 47.55C214.301 47.55 212.783 47.022 211.668 45.966C210.553 44.91 209.996 43.5093 209.996 41.764C209.996 39.4027 210.751 37.4887 212.262 36.022C213.787 34.5407 215.723 33.8 218.07 33.8C218.598 33.8 219.126 33.8587 219.654 33.976C219.815 34.46 219.903 35.01 219.918 35.626C220.226 35.5233 220.534 35.472 220.842 35.472ZM218.136 38.53C218.136 38.1193 218.231 37.6573 218.422 37.144C218.627 36.6307 218.95 36.22 219.39 35.912C217.454 36.3227 216.119 37.1073 215.386 38.266C214.755 39.2633 214.44 40.29 214.44 41.346C214.44 42.402 214.653 43.2527 215.078 43.898C215.518 44.5287 216.075 44.844 216.75 44.844C218.246 44.844 219.302 43.8687 219.918 41.918C218.73 41.1847 218.136 40.0553 218.136 38.53ZM225.942 40.026C225.84 39.7033 225.788 39.3733 225.788 39.036C225.788 38.332 225.986 37.7967 226.382 37.43C226.778 37.0633 227.284 36.8727 227.9 36.858C227.798 36.4033 227.746 35.9047 227.746 35.362C227.746 33.7487 228.164 32.3627 229 31.204C229.836 30.0307 231.017 29.444 232.542 29.444C233.378 29.444 234.031 29.6933 234.5 30.192C234.984 30.6907 235.226 31.27 235.226 31.93C235.226 32.59 234.999 33.1547 234.544 33.624C234.09 34.0787 233.496 34.306 232.762 34.306C232.029 34.306 231.376 34.13 230.804 33.778L230.496 34.02L231.266 36.638C232.029 36.5353 232.806 36.3373 233.598 36.044C233.701 36.3667 233.752 36.7627 233.752 37.232C233.752 37.6867 233.613 38.1193 233.334 38.53C233.07 38.926 232.682 39.1827 232.168 39.3C231.23 43.6267 230.76 46.7067 230.76 48.54C230.76 49.4787 230.988 50.146 231.442 50.542C230.372 51.2607 229.418 51.62 228.582 51.62C226.94 51.62 226.118 50.608 226.118 48.584C226.118 47.3227 226.573 44.3453 227.482 39.652C226.822 39.784 226.309 39.9087 225.942 40.026ZM235.439 40.026C235.336 39.7033 235.285 39.3733 235.285 39.036C235.285 38.332 235.483 37.7967 235.879 37.43C236.275 37.0633 236.781 36.8727 237.397 36.858C237.294 36.4033 237.243 35.9047 237.243 35.362C237.243 33.7487 237.661 32.3627 238.497 31.204C239.333 30.0307 240.513 29.444 242.039 29.444C242.875 29.444 243.527 29.6933 243.997 30.192C244.481 30.6907 244.723 31.27 244.723 31.93C244.723 32.59 244.495 33.1547 244.041 33.624C243.586 34.0787 242.992 34.306 242.259 34.306C241.525 34.306 240.873 34.13 240.301 33.778L239.993 34.02L240.763 36.638C241.525 36.5353 242.303 36.3373 243.095 36.044C243.197 36.3667 243.249 36.7627 243.249 37.232C243.249 37.6867 243.109 38.1193 242.831 38.53C242.567 38.926 242.178 39.1827 241.665 39.3C240.726 43.6267 240.257 46.7067 240.257 48.54C240.257 49.4787 240.484 50.146 240.939 50.542C239.868 51.2607 238.915 51.62 238.079 51.62C236.436 51.62 235.615 50.608 235.615 48.584C235.615 47.3227 236.069 44.3453 236.979 39.652C236.319 39.784 235.805 39.9087 235.439 40.026ZM251.007 47.55C248.997 47.55 247.443 47.0293 246.343 45.988C245.257 44.9467 244.715 43.5387 244.715 41.764C244.715 39.4027 245.521 37.4887 247.135 36.022C248.763 34.5407 250.801 33.8 253.251 33.8C254.615 33.8 255.649 34.108 256.353 34.724C257.057 35.3253 257.409 36.1247 257.409 37.122C257.409 38.486 256.741 39.6227 255.407 40.532C254.087 41.4267 252.041 41.8813 249.269 41.896C249.313 42.8347 249.525 43.5753 249.907 44.118C250.288 44.646 250.765 44.91 251.337 44.91C251.909 44.91 252.4 44.7193 252.811 44.338C253.236 43.9567 253.449 43.3333 253.449 42.468C255.59 42.468 256.661 42.974 256.661 43.986C256.661 44.8513 256.133 45.6653 255.077 46.428C254.021 47.176 252.664 47.55 251.007 47.55ZM252.877 36.374C252.129 36.374 251.439 36.748 250.809 37.496C250.193 38.244 249.745 39.124 249.467 40.136C250.933 40.0187 252.033 39.6887 252.767 39.146C253.515 38.5887 253.889 38.002 253.889 37.386C253.889 37.0927 253.793 36.8507 253.603 36.66C253.427 36.4693 253.185 36.374 252.877 36.374ZM265.466 47.55C263.456 47.55 261.902 47.0293 260.802 45.988C259.716 44.9467 259.174 43.5387 259.174 41.764C259.174 39.4027 259.98 37.4887 261.594 36.022C263.222 34.5407 265.26 33.8 267.71 33.8C269.074 33.8 270.108 34.108 270.812 34.724C271.516 35.3253 271.868 36.1247 271.868 37.122C271.868 38.486 271.2 39.6227 269.866 40.532C268.546 41.4267 266.5 41.8813 263.728 41.896C263.772 42.8347 263.984 43.5753 264.366 44.118C264.747 44.646 265.224 44.91 265.796 44.91C266.368 44.91 266.859 44.7193 267.27 44.338C267.695 43.9567 267.908 43.3333 267.908 42.468C270.049 42.468 271.12 42.974 271.12 43.986C271.12 44.8513 270.592 45.6653 269.536 46.428C268.48 47.176 267.123 47.55 265.466 47.55ZM267.336 36.374C266.588 36.374 265.898 36.748 265.268 37.496C264.652 38.244 264.204 39.124 263.926 40.136C265.392 40.0187 266.492 39.6887 267.226 39.146C267.974 38.5887 268.348 38.002 268.348 37.386C268.348 37.0927 268.252 36.8507 268.062 36.66C267.886 36.4693 267.644 36.374 267.336 36.374Z" fill="#00c7ff"/>
<rect x="0.5" y="0.5" width="298" height="77" rx="19.5" stroke="#00c7ff"/>
</svg>
