<svg width="299" height="78" viewBox="0 0 299 78" fill="none" xmlns="http://www.w3.org/2000/svg">
<rect x="0.5" y="0.5" width="298" height="77" rx="19.5" fill="#000a1f"/>
<path d="M103.959 41.4604C103.74 42.6459 102.871 48.1718 102.615 49.7338C102.596 49.845 102.552 49.8882 102.427 49.8882H97.7638C97.2887 49.8882 96.9448 49.4807 97.0073 49.03L100.671 26.0681C100.764 25.4754 101.302 25.0247 101.921 25.0247C111.442 25.0247 112.242 24.7963 114.674 25.7286C118.431 27.1672 118.775 30.6371 117.425 34.391C116.08 38.256 112.892 39.9169 108.666 39.9663C105.953 40.0095 104.322 39.5341 103.959 41.4604V41.4604ZM119.319 32.5758C119.206 32.4955 119.162 32.4646 119.131 32.656C119.006 33.3599 118.812 34.0452 118.581 34.7305C116.087 41.7568 109.173 41.1455 105.797 41.1455C105.416 41.1455 105.165 41.3493 105.115 41.7259C103.703 50.3945 103.421 52.2035 103.421 52.2035C103.359 52.6419 103.64 53 104.084 53H108.054C108.591 53 109.035 52.611 109.141 52.08C109.185 51.7466 109.073 52.4567 110.042 46.443C110.329 45.0847 110.936 45.2267 111.873 45.2267C116.312 45.2267 119.775 43.4485 120.807 38.2931C121.213 36.1444 121.094 33.8847 119.319 32.5758V32.5758Z" fill="#00c7ff"/>
<path d="M134.355 45H137.43L138.219 40.2841H140.797C144.156 40.2841 146.429 38.2955 146.905 35.3835C147.381 32.4858 145.811 30.4545 142.509 30.4545H136.77L134.355 45ZM138.631 37.8196L139.44 32.9688H141.514C143.29 32.9688 143.972 33.9276 143.737 35.3835C143.503 36.8253 142.487 37.8196 140.705 37.8196H138.631ZM150.037 45.206C151.649 45.206 152.814 44.5028 153.51 43.4872H153.595L153.339 45H156.209L157.438 37.642C157.864 35.0426 155.839 33.9489 153.425 33.9489C150.804 33.9489 148.865 35.1989 148.126 37.1875L150.882 37.4148C151.209 36.6903 151.983 36.1577 153.062 36.1577C154.085 36.1577 154.568 36.6761 154.426 37.571V37.6136C154.298 38.3097 153.524 38.402 151.614 38.5938C149.419 38.7926 147.366 39.5241 146.955 41.9531C146.599 44.1051 147.963 45.206 150.037 45.206ZM151.251 43.1179C150.307 43.1179 149.732 42.6776 149.859 41.8537C149.994 41.0014 150.783 40.5824 151.876 40.4332C152.537 40.3267 153.652 40.1847 154.043 39.9432L153.858 41.1009C153.659 42.2443 152.58 43.1179 151.251 43.1179ZM159.366 49.0909C161.603 49.0909 162.995 47.9545 163.911 46.179L170.154 34.0909H166.837L163.222 42.1165H163.109L162.185 34.0909H159.117L161.163 45.2912L160.893 45.7528C160.303 46.7685 159.586 46.8466 158.57 46.5199L157.505 48.7784C157.917 48.9631 158.592 49.0909 159.366 49.0909ZM169.941 45H173.016L173.805 40.2841H176.383C179.742 40.2841 182.015 38.2955 182.491 35.3835C182.967 32.4858 181.397 30.4545 178.094 30.4545H172.356L169.941 45ZM174.217 37.8196L175.026 32.9688H177.1C178.876 32.9688 179.558 33.9276 179.323 35.3835C179.089 36.8253 178.073 37.8196 176.29 37.8196H174.217ZM185.623 45.206C187.235 45.206 188.4 44.5028 189.096 43.4872H189.181L188.925 45H191.795L193.023 37.642C193.45 35.0426 191.425 33.9489 189.011 33.9489C186.39 33.9489 184.451 35.1989 183.712 37.1875L186.468 37.4148C186.795 36.6903 187.569 36.1577 188.648 36.1577C189.671 36.1577 190.154 36.6761 190.012 37.571V37.6136C189.884 38.3097 189.11 38.402 187.2 38.5938C185.005 38.7926 182.952 39.5241 182.54 41.9531C182.185 44.1051 183.549 45.206 185.623 45.206ZM186.837 43.1179C185.893 43.1179 185.317 42.6776 185.445 41.8537C185.58 41.0014 186.369 40.5824 187.462 40.4332C188.123 40.3267 189.238 40.1847 189.629 39.9432L189.444 41.1009C189.245 42.2443 188.165 43.1179 186.837 43.1179ZM199.582 30.4545H196.557L194.142 45H197.168L199.582 30.4545Z" fill="#00c7ff"/>
<rect x="0.5" y="0.5" width="298" height="77" rx="19.5" stroke="#00c7ff"/>
</svg>
