<svg width="228" height="121" viewBox="0 0 228 121" fill="none" xmlns="http://www.w3.org/2000/svg">
<path d="M20.0554 109.908C16.2901 107.666 12.5898 105.284 10.0547 101.616C6.35042 96.2549 4.53467 90.2663 3.52078 83.862C2.08523 74.7944 1.85731 63.6971 7.24567 55.7539C12.2722 48.3441 21.9177 44.514 30.5358 43.7716C39.0889 43.0349 47.7686 47.191 52.8964 54.0151C58.4073 61.3493 60.1119 70.2263 58.7413 79.17C57.7989 85.3194 55.3654 90.4001 51.6959 95.3244C51.1907 96.0025 49.6655 98.0289 50.1903 97.366C51.4639 95.7571 52.6182 94.0552 54.0533 92.5793C55.904 90.6761 58.8412 88.4241 61.6794 89.373C63.3947 89.9465 64.0362 91.8529 65.1271 93.1057C65.9321 94.0302 68.8936 92.0631 69.5975 91.7109C71.9187 90.5498 73.9654 89.2164 76.648 89.3019C78.6344 89.3652 80.0527 89.6956 81.7415 88.4571C83.4035 87.2383 84.6411 85.5819 86.7642 85.224C89.2832 84.7993 91.9125 85.5544 94.3216 84.5264C97.0709 83.3532 99.4432 81.6241 102.283 80.5881C108.349 78.3746 114.581 75.4015 121.044 74.6775C123.82 74.3665 126.548 73.8526 129.296 73.3673C131.453 72.9864 133.233 72.8042 134.133 75.2295C134.724 76.8232 134.682 78.6066 134.534 80.2706C134.067 85.5124 132.763 90.7018 131.165 95.6985C128.977 102.539 126.27 109.626 122.544 115.803C122.315 116.182 120.552 119.655 120.43 117.458C119.963 109.059 123.119 100.014 125.713 92.1828C130.518 77.6753 136.089 63.3098 141.857 49.1606C147.851 34.4565 154.564 19.75 164.461 7.22377C166.708 4.37881 171.497 -0.850644 172.621 5.7006C173.606 11.4466 171.703 17.4925 170.065 22.9159C167.614 31.0316 164.603 39.0229 160.931 46.6637C158.906 50.8772 156.624 54.9634 154.359 59.0497C153.366 60.8407 152.31 62.5968 151.345 64.4025C151.063 64.9281 150.57 65.7659 151.485 64.9275C160.344 56.8064 168.146 47.9312 178.88 42.1268C181.389 40.7702 184.232 39.3278 187.182 39.3585C191.583 39.4043 195.799 41.6888 199.661 43.5203C203.783 45.4746 207.706 47.5151 212.343 47.7923C216.51 48.0415 220.547 47.336 224.657 46.8713" stroke="#FF4B8C" stroke-width="5" stroke-linecap="round"/>
</svg>
