<svg width="24" height="24" viewBox="0 0 24 24" fill="none" xmlns="http://www.w3.org/2000/svg">
<rect x="2" y="2" width="20" height="20" rx="3" stroke="#7b89a8" stroke-width="2"/>
<path d="M8.15 15.268C8.15 15.476 8.074 15.652 7.922 15.796C7.77 15.932 7.594 16 7.394 16C7.17 16 6.99 15.932 6.854 15.796C6.718 15.652 6.65 15.476 6.65 15.268V8.332C6.65 8.124 6.722 7.952 6.866 7.816C7.01 7.672 7.194 7.6 7.418 7.6C7.61 7.6 7.778 7.672 7.922 7.816C8.074 7.952 8.15 8.124 8.15 8.332V15.268ZM11.5627 7.6C11.7547 7.6 11.9227 7.672 12.0667 7.816C12.2187 7.952 12.2947 8.124 12.2947 8.332V15.268C12.2947 15.476 12.2187 15.652 12.0667 15.796C11.9147 15.932 11.7387 16 11.5387 16C11.3147 16 11.1347 15.932 10.9987 15.796C10.8627 15.652 10.7947 15.476 10.7947 15.268V8.332C10.7947 8.124 10.8667 7.952 11.0107 7.816C11.1547 7.672 11.3387 7.6 11.5627 7.6ZM16.8787 7.6C17.1027 7.6 17.2827 7.672 17.4187 7.816C17.5547 7.952 17.6227 8.124 17.6227 8.332V15.268C17.6227 15.476 17.5507 15.652 17.4067 15.796C17.2707 15.932 17.0867 16 16.8547 16C16.6627 16 16.4907 15.932 16.3387 15.796C16.1947 15.652 16.1227 15.476 16.1227 15.268V8.332C16.1227 8.124 16.1987 7.952 16.3507 7.816C16.5027 7.672 16.6787 7.6 16.8787 7.6ZM11.5267 11.092H16.8787V12.472H11.5267V11.092Z" fill="#7b89a8"/>
<path d="M7.922 15.796L8.12212 16.0197L8.12832 16.0138L7.922 15.796ZM6.854 15.796L6.63581 16.0021L6.64187 16.0081L6.854 15.796ZM6.866 7.816L7.07207 8.03419L7.07813 8.02813L6.866 7.816ZM7.922 7.816L7.70987 8.02813L7.71576 8.03402L7.72196 8.03957L7.922 7.816ZM7.85 15.268C7.85 15.393 7.80832 15.4904 7.71568 15.5782L8.12832 16.0138C8.33968 15.8136 8.45 15.559 8.45 15.268H7.85ZM7.72196 15.5724C7.62377 15.6603 7.51859 15.7 7.394 15.7V16.3C7.66941 16.3 7.91623 16.2037 8.12204 16.0196L7.72196 15.5724ZM7.394 15.7C7.23541 15.7 7.1366 15.6543 7.06613 15.5839L6.64187 16.0081C6.8434 16.2097 7.10459 16.3 7.394 16.3V15.7ZM7.0721 15.59C6.99154 15.5047 6.95 15.4036 6.95 15.268H6.35C6.35 15.5484 6.44446 15.7993 6.6359 16.002L7.0721 15.59ZM6.95 15.268V8.332H6.35V15.268H6.95ZM6.95 8.332C6.95 8.20189 6.99129 8.11032 7.07199 8.0341L6.66001 7.5979C6.45271 7.79368 6.35 8.04611 6.35 8.332H6.95ZM7.07813 8.02813C7.15998 7.94628 7.26483 7.9 7.418 7.9V7.3C7.12317 7.3 6.86002 7.39772 6.65387 7.60387L7.07813 8.02813ZM7.418 7.9C7.52523 7.9 7.61834 7.9366 7.70987 8.02813L8.13413 7.60387C7.93766 7.40739 7.69477 7.3 7.418 7.3V7.9ZM7.72196 8.03957C7.80893 8.11739 7.85 8.20742 7.85 8.332H8.45C8.45 8.04058 8.33907 7.78661 8.12204 7.59243L7.72196 8.03957ZM7.85 8.332V15.268H8.45V8.332H7.85ZM12.0667 7.816L11.8546 8.02813L11.8604 8.03402L11.8666 8.03957L12.0667 7.816ZM12.0667 15.796L12.2668 16.0197L12.273 16.0138L12.0667 15.796ZM10.9987 15.796L10.7805 16.0021L10.7866 16.0081L10.9987 15.796ZM11.0107 7.816L11.2168 8.03419L11.2228 8.02813L11.0107 7.816ZM17.4187 7.816L17.2005 8.02207L17.2066 8.02813L17.4187 7.816ZM17.4067 15.796L17.6188 16.0081L17.6188 16.0081L17.4067 15.796ZM16.3387 15.796L16.1266 16.0081L16.1324 16.014L16.1386 16.0196L16.3387 15.796ZM16.3507 7.816L16.5508 8.03966L16.557 8.03379L16.3507 7.816ZM11.5267 11.092V10.792H11.2267V11.092H11.5267ZM16.8787 11.092H17.1787V10.792H16.8787V11.092ZM16.8787 12.472V12.772H17.1787V12.472H16.8787ZM11.5267 12.472H11.2267V12.772H11.5267V12.472ZM11.5627 7.9C11.6699 7.9 11.763 7.9366 11.8546 8.02813L12.2788 7.60387C12.0823 7.40739 11.8395 7.3 11.5627 7.3V7.9ZM11.8666 8.03957C11.9536 8.11739 11.9947 8.20742 11.9947 8.332H12.5947C12.5947 8.04058 12.4838 7.78661 12.2667 7.59243L11.8666 8.03957ZM11.9947 8.332V15.268H12.5947V8.332H11.9947ZM11.9947 15.268C11.9947 15.393 11.953 15.4904 11.8604 15.5782L12.273 16.0138C12.4844 15.8136 12.5947 15.559 12.5947 15.268H11.9947ZM11.8666 15.5724C11.7685 15.6603 11.6633 15.7 11.5387 15.7V16.3C11.8141 16.3 12.0609 16.2037 12.2667 16.0196L11.8666 15.5724ZM11.5387 15.7C11.3801 15.7 11.2813 15.6543 11.2108 15.5839L10.7866 16.0081C10.9881 16.2097 11.2493 16.3 11.5387 16.3V15.7ZM11.2168 15.59C11.1362 15.5047 11.0947 15.4036 11.0947 15.268H10.4947C10.4947 15.5484 10.5892 15.7993 10.7806 16.002L11.2168 15.59ZM11.0947 15.268V8.332H10.4947V15.268H11.0947ZM11.0947 8.332C11.0947 8.20189 11.136 8.11032 11.2167 8.0341L10.8047 7.5979C10.5974 7.79368 10.4947 8.04611 10.4947 8.332H11.0947ZM11.2228 8.02813C11.3047 7.94628 11.4095 7.9 11.5627 7.9V7.3C11.2679 7.3 11.0047 7.39772 10.7986 7.60387L11.2228 8.02813ZM16.8787 7.9C17.032 7.9 17.1289 7.94612 17.2006 8.02199L17.6368 7.61001C17.4364 7.39788 17.1733 7.3 16.8787 7.3V7.9ZM17.2066 8.02813C17.2814 8.10301 17.3227 8.19641 17.3227 8.332H17.9227C17.9227 8.05159 17.8279 7.80099 17.6308 7.60387L17.2066 8.02813ZM17.3227 8.332V15.268H17.9227V8.332H17.3227ZM17.3227 15.268C17.3227 15.3983 17.281 15.4975 17.1946 15.5839L17.6188 16.0081C17.8204 15.8065 17.9227 15.5537 17.9227 15.268H17.3227ZM17.1946 15.5839C17.1261 15.6523 17.0247 15.7 16.8547 15.7V16.3C17.1487 16.3 17.4153 16.2117 17.6188 16.0081L17.1946 15.5839ZM16.8547 15.7C16.7414 15.7 16.6395 15.6626 16.5387 15.5724L16.1386 16.0196C16.3419 16.2014 16.584 16.3 16.8547 16.3V15.7ZM16.5508 15.5839C16.4644 15.4975 16.4227 15.3983 16.4227 15.268H15.8227C15.8227 15.5537 15.925 15.8065 16.1266 16.0081L16.5508 15.5839ZM16.4227 15.268V8.332H15.8227V15.268H16.4227ZM16.4227 8.332C16.4227 8.20742 16.4638 8.11739 16.5507 8.03957L16.1506 7.59243C15.9336 7.78661 15.8227 8.04058 15.8227 8.332H16.4227ZM16.557 8.03379C16.6562 7.93984 16.7593 7.9 16.8787 7.9V7.3C16.598 7.3 16.3492 7.40416 16.1444 7.59821L16.557 8.03379ZM11.5267 11.392H16.8787V10.792H11.5267V11.392ZM16.5787 11.092V12.472H17.1787V11.092H16.5787ZM16.8787 12.172H11.5267V12.772H16.8787V12.172ZM11.8267 12.472V11.092H11.2267V12.472H11.8267Z" fill="#7b89a8"/>
</svg>
