<svg width="484" height="336" viewBox="0 0 484 336" fill="none" xmlns="http://www.w3.org/2000/svg">
<path d="M348.872 27.7733C348.804 39.4628 348.387 50.2394 345.958 61.622C342.83 76.2872 332.253 88.564 322.386 99.3905C300.025 123.926 267.14 134.582 235.407 140.602C194.19 148.422 148.615 143.127 109.442 160.043C72.25 176.103 46.7681 203.544 22.2509 234.679C16.3011 242.235 10.5116 249.809 3.71094 256.609" stroke="#00B2FF33" stroke-width="6" stroke-linecap="round"/>
<path d="M428.321 3.737C436.968 25.6853 434.258 53.0447 425.231 74.6886C412.913 104.224 388.992 133.024 362.089 150.078C336.256 166.454 305.073 175.875 275.716 183.897C260.979 187.924 244.977 190.807 229.623 190.807" stroke="#00B2FF66" stroke-width="6" stroke-linecap="round"/>
<path d="M23.8457 332.373C35.9798 328.784 43.3931 324.512 52.4398 315.8C56.2732 312.109 59.1516 307.83 62.2708 303.554C65.666 298.9 69.7129 294.831 73.141 290.184C76.2293 285.997 80.2881 282.821 83.4214 278.724C86.8221 274.277 89.9735 269.612 93.3648 265.129C100.325 255.928 108.192 247.949 116.369 239.849C130.362 225.99 149.753 213.225 168.333 206.536C175.753 203.865 183.564 202.534 191.141 200.413C194.077 199.591 202.256 199.281 202.826" stroke="#00B2FFbb" stroke-width="6" stroke-linecap="round"/>
<path d="M478.375 69.4641C479.739 76.4585 481.365 82.7803 478.599 89.6317C475.403 97.5502 470.025 105.375 464.724 112.046C461.553 116.037 458.232 119.851 455.37 124.068C454.204 125.786 453.449 126.806 451.578 127.607" stroke="#00B2FF99" stroke-width="6" stroke-linecap="round"/>
<path d="M424.275 152.887C415.152 163.771 406.656 173.015 395.119 181.2C385.993 187.675 375.249 191.99 365.261 196.93C352.896 203.046 339.867 208.742 327.033 213.839C314.919 218.65 301.947 220.986 289.478 224.653C261.108 232.997 232.891 243.573 205.297 254.23C195.621 257.968 183.578 261.23 175.579 268.162C171.455 271.736 167.756 275.929 163.895 279.791" stroke="#00B2FF" stroke-width="6" stroke-linecap="round"/>
</svg>
