<svg width="422" height="297" viewBox="0 0 422 297" fill="none" xmlns="http://www.w3.org/2000/svg">
<path d="M418.719 79.2786C389.737 66.9836 350.846 52.1296 319.662 64.7645C297.111 73.9015 286.317 90.6668 273.524 110.32C256.874 135.899 240.356 164.371 212.872 179.818C196.779 188.864 178.494 193.183 160.272 195.074C138.144 197.37 116.232 197.829 98.4543 212.872C80.4397 228.115 66.766 247.399 49.7207 263.619C36.2947 276.394 19.1889 285.043 3 293.812" stroke="#00B2FF" stroke-width="6" stroke-linecap="round"/>
<path d="M359.603 5.86047C333.822 7.55103 313.251 17.1478 290.422 28.956C284.941 31.7912 280.974 36.4596 276.12 40.1329C271.439 43.6753 265.508 46.9016 261.924 51.6807C257.28 57.8721 256.169 64.9369 252.812 71.6508" stroke="#00B2FFbb" stroke-width="6" stroke-linecap="round"/>
<path d="M242.326 95.4879C231.559 112.78 221.435 129.622 206.888 144.168C193.871 157.185 171.938 164.174 154.976 169.966C139.369 175.295 124.373 175.07 108.308 177.699C103.151 178.543 97.4225 182.255 92.6289 182.255" stroke="#00B2FF99" stroke-width="6" stroke-linecap="round"/>
<path d="M277.604 3C261.138 7.45384 247.692 16.3137 236.816 29.9094C232.652 35.1145 230.099 41.2323 226.645 46.8602C222.357 53.8482 215.587 59.3518 210.489 65.771C189.926 91.6657 166.59 116.562 136.17 130.555C113.014 141.207 92.3076 146.051 67.3606 149.889C48.2263 152.833 32.8947 164.233 17.3027 174.627" stroke="#00B2FF66" stroke-width="6" stroke-linecap="round"/>
<path d="M269.022 180.348C252.874 203.594 228.549 223.671 200.212 229.505C190.859 231.431 181.969 233.371 172.72 235.65C168.337 236.73 162.66 239.464 158.418 239.464" stroke="#00B2FF33" stroke-width="6" stroke-linecap="round"/>
</svg>
