<svg width="80" height="72" viewBox="0 0 80 72" fill="none" xmlns="http://www.w3.org/2000/svg">
<g opacity="0.6">
<path d="M27.6241 17.5164C22.4356 19.1024 16.5528 20.2355 11.7689 23.0804C10.6018 23.7744 8.04783 25.0108 7.29107 26.2665C6.44952 27.6628 10.7248 31.8523 11.1803 32.3961C13.0512 34.6296 14.9394 39.1421 17.5796 40.4598" stroke="#00c7ff" stroke-width="6" stroke-linecap="round"/>
<path d="M22.5386 59.9485C27.9163 53.049 33.9441 46.7475 39.3154 39.8349C42.9177 35.1989 46.4347 30.4775 50.128 25.9185C52.3436 23.1837 54.9671 20.7759 56.9489 17.8464C58.379 15.7324 60.0833 14.1494 61.9686 12.4999" stroke="#00c7ff" stroke-width="6" stroke-linecap="round"/>
<path d="M61.2089 33.5776C63.3481 36.7746 65.347 40.1881 68.2823 42.6624C69.3622 43.5727 70.5654 44.2855 71.6648 45.1623C72.6687 45.963 72.5383 46.5695 71.4402 47.2506C66.6493 50.2224 61.2146 52.1337 56.1403 54.4705C53.9866 55.4623 51.8334 56.2482 49.5771 56.9049C49.0121 57.0693 48.4214 57.1983 48.0908 57.7228" stroke="#00c7ff" stroke-width="6" stroke-linecap="round"/>
</g>
</svg>
