<svg width="61" height="38" viewBox="0 0 61 38" fill="none" xmlns="http://www.w3.org/2000/svg">
<path d="M46.1279 5C45.507 6.65831 45.0359 8.40401 44.2092 9.97393C43.5794 11.1699 42.6808 12.1915 41.6857 13.0934C39.8931 14.7183 37.6025 15.8729 35.2151 16.2184C33.3477 16.4886 31.5285 16.6418 29.6918 17.1158C29.4666 17.174 29.235 17.2172 29.0067 17.2591C28.9288 17.2734 29.5529 17.569 29.6436 17.6051C33.7001 19.2211 39.6476 20.186 40.8829 25.2039C41.582 28.0437 40.9739 31.0848 40.9739 33.9758C40.9739 34.0384 41.022 33.9622 41.0381 33.9407C41.2576 33.6477 41.463 33.3374 41.6482 33.0216C42.1955 32.0887 42.6918 31.1255 43.2432 30.194C43.9849 28.941 44.8579 27.6857 45.9459 26.7123C47.2076 25.5835 48.6531 24.7458 50.1607 24.0009C52.2951 22.9464 54.666 22.1793 57.0621 22.1357C57.3436 22.1306 57.646 22.1326 57.9185 22.2141C58.2214 22.3048 57.5847 21.9554 57.5545 21.9384C56.9734 21.6109 56.355 21.398 55.7268 21.1815C54.8756 20.888 54.0502 20.4887 53.2568 20.0623C51.4039 19.0666 49.9152 17.5677 48.9431 15.6939C47.9447 13.7696 47.0841 11.6406 46.9789 9.43869C46.9396 8.6176 47.0826 7.76916 46.7541 6.99498" stroke="#00c7ff" stroke-width="6" stroke-linecap="round"/>
<path d="M45.8438 14.8929C45.9957 15.3779 47.2745 19.4124 47.4647 20.1859C48.0486 22.5611 46.5255 20.4085 46.1056 19.8123C45.3613 18.7554 43.623 16.4861 44.3437 14.9863C44.5956 14.4622 45.242 14.0511 45.7935 14.0056C47.3125 13.8803 47.6811 15.8914 47.8221 17.0309C48.0262 18.6803 47.9449 20.432 47.4848 22.0333C47.3102 22.641 46.3881 25.1606 45.431 24.0882C44.5579 23.1098 44.0379 21.699 43.6591 20.4558C43.4467 19.7587 43.0452 18.69 43.6189 18.0428C44.16 17.4323 45.2079 16.6803 46.0552 16.8856C47.4488 17.2231 47.7025 18.6475 47.7365 19.9265C47.7685 21.1284 47.2967 22.1466 46.5938 23.0815C46.351 23.4046 45.1085 25.0272 44.5048 24.5916C43.779 24.0678 44.7285 22.1891 45.0082 21.7219C45.6409 20.6648 46.9183 19.2748 48.26 19.3453C50.8863 19.4832 49.2513 22.1207 48.4362 23.232C47.7973 24.1031 47.1823 25.1322 46.3271 25.8006C45.7861 26.2235 45.3728 25.9411 45.4461 25.261C45.6057 23.7807 46.4913 22.2586 47.4345 21.1719C47.7961 20.7553 49.0352 19.4108 49.7501 19.968C50.3605 20.4438 49.6975 21.9261 49.4027 22.3861C48.4366 23.8939 46.4731 24.197 44.8924 23.7302C42.9602 23.1595 40.6824 21.2295 40.2261 19.0754C40.1198 18.574 40.2966 18.1161 40.5633 17.7003C40.7464 17.4148 40.967 17.1662 41.2127 16.9375C41.2726 16.8817 41.4689 16.7772 41.3889 16.7662C40.9535 16.7064 37.7101 16.2812 39.5717 16.0657C41.0397 15.8957 42.5296 15.8585 43.9914 16.102C44.4226 16.1739 45.5451 16.3194 44.7313 16.8856C43.3936 17.8164 41.761 18.2705 40.2261 18.7226" stroke="#00c7ff" stroke-width="6" stroke-linecap="round"/>
<path d="M8.97416 3.21509C8.93481 4.08507 8.69584 5.29479 9.02613 6.14275C9.419 7.1514 10.3577 8.05532 11.0676 8.79955C11.911 9.68385 12.5121 9.82377 13.6361 9.65594C15.1122 9.43555 16.551 9.0344 18.0307 8.83939C18.1466 8.82411 19.2766 8.61042 18.9364 8.84735C17.673 9.72717 16.4358 10.5126 15.0317 11.1018C14.3571 11.3849 13.1284 11.7816 12.7119 12.4522C12.0757 13.4762 12.0636 15.1277 12.3964 16.2641C12.6488 17.1262 13.215 17.8117 13.547 18.6261C13.5687 18.6793 13.6292 18.9243 13.5841 18.9727C13.4463 19.1206 13.3618 18.6284 13.2649 18.4469C13.0335 18.0135 12.7976 17.5794 12.5894 17.1324C12.0735 16.0251 11.8981 15.0445 11.0601 14.1291C10.3694 13.3745 9.67963 12.7552 8.66238 12.6075C7.45875 12.4327 6.24394 12.5901 5.07687 12.9262C4.74311 13.0223 3.73952 13.29 4.06357 13.1612C4.96104 12.8045 5.90999 12.6707 6.74714 12.1454C7.45483 11.7015 7.60618 11.1096 7.77157 10.2813C8.10599 8.60652 8.08973 6.88493 8.15758 5.1828C8.18777 4.42555 8.14126 3.72654 7.972 3" stroke="#00c7ff" stroke-width="6" stroke-linecap="round"/>
</svg>
