<svg width="143" height="109" viewBox="0 0 143 109" fill="none" xmlns="http://www.w3.org/2000/svg">
<g opacity="0.4">
<path d="M92.7285 7.5913C81.835 12.0141 70.5541 15.4466 59.6222 19.797C51.1729 23.1593 42.7667 26.7287 34.0942 29.4844C29.2454 31.0252 24.0997 31.7903 19.3141 33.4642C15.6876 34.7328 17.1185 38.6812 17.8703 41.6312C20.1071 50.4087 23.5423 59.1468 27.5091 67.2696C28.7003 69.709 29.7672 72.4671 31.4395 74.6322C32.2646 75.7005 34.134 75.537 35.3031 75.499C40.2891 75.3366 45.1318 74.3636 49.9825 73.2837C58.276 71.4374 66.5101 69.4535 74.6983 67.1803C88.0832 63.4644 101.009 58.3983 114.212 54.1126C115.427 53.7183 118.124 53.1487 118.416 51.5703C118.787 49.5692 117.63 47.0579 117.049 45.2152C115.972 41.8033 114.779 38.4175 113.51 35.0728C111.009 28.48 107.143 22.6967 104.181 16.3299C103.187 14.1933 102.159 12.1048 101.055 10.0223C100.567 9.10168 100.211 8.3145 100.102 7.28959" stroke="#00c7ff" stroke-width="6" stroke-linecap="round"/>
<path d="M31.2833 78.1639C27.5293 83.1817 24.6176 88.5609 22.0752 94.2611C20.9431 96.7992 19.7721 99.2 19.4114 101.987C19.1129 104.293 20.1614 104.514 22.4428 104.491C25.3205 104.461 28.2272 103.79 31.0555 103.324C37.3821 102.283 43.696 101.055 49.9571 99.6759C63.3723 96.7211 76.2803 92.2566 89.3617 88.1808C100.169 84.8138 111.182 82.1231 121.823 78.2277C125.764 76.7852 129.681 75.2523 133.598 73.7454C135.449 73.0331 137.747 72.6326 139.435 71.5691C140.093 71.1548 139.733 70.8192 139.268 70.232C137.055 67.4391 134.882 64.4545 132.533 61.7816C129.862 58.7418 126.71 56.198 122.751 55.4248" stroke="#00c7ff" stroke-width="6" stroke-linecap="round"/>
<path d="M40.227 85.419C40.3626 85.3545 42.6218 83.9364 42.4627 84.8401C42.2283 86.1721 42.167 84.7882 42.2774 84.2228" stroke="#00c7ff" stroke-width="6" stroke-linecap="round"/>
<path d="M52.8065 81.0484C53.2381 80.7939 55.4247 79.1721 55.8535 80.3558C56.1786 81.253 55.4597 82.6444 54.7389 83.1661C53.8115 83.8372 53.8647 81.3855 55.154 82.2776" stroke="#00c7ff" stroke-width="6" stroke-linecap="round"/>
<path d="M68.8661 77.4679C69.4287 77.2186 73.082 74.9155 72.7151 76.9288C72.5601 77.7792 71.9885 78.7543 71.2064 79.1728C70.9133 79.3296 70.6084 79.1556 70.6042 78.8105C70.5943 77.9863 71.3668 77.6392 71.9382 77.242" stroke="#00c7ff" stroke-width="6" stroke-linecap="round"/>
<path d="M83.5938 72.2507C84.1618 72.1215 84.9841 71.9349 85.5722 71.799C85.8134 71.7433 86.3644 71.4387 86.3052 71.6791C86.0816 72.5865 85.1981 73.6218 84.685 74.3999C84.1427 75.2222 85.0506 73.6685 85.0976 73.6027C85.5937 72.9082 86.083 72.5628 86.8792 72.3418" stroke="#00c7ff" stroke-width="6" stroke-linecap="round"/>
<path d="M100.642 69.5239C101.032 68.9064 102.844 66.348 103.591 67.9527" stroke="#00c7ff" stroke-width="6" stroke-linecap="round"/>
<path d="M113.164 64.0417C114.347 63.0994 114.457 62.7214 115.725 63.3307" stroke="#00c7ff" stroke-width="6" stroke-linecap="round"/>
<path d="M108.111 76.1027C107.952 75.788 106.905 74.1288 107.862 73.9985C108.216 73.9503 107.954 74.6606 107.911 74.779C107.598 75.6457 106.939 76.1773 106.068 76.4193" stroke="#00c7ff" stroke-width="6" stroke-linecap="round"/>
<path d="M93.4738 80.2915C93.3533 80.3133 90.4353 81.0804 90.9338 80.3767C91.4556 79.64 90.7687 81.2342 90.7443 81.3001" stroke="#00c7ff" stroke-width="6" stroke-linecap="round"/>
<path d="M77.2012 85.8119L75.3448 87.7066" stroke="#00c7ff" stroke-width="6" stroke-linecap="round"/>
<path d="M63.6829 91.3203C64.2582 87.968 61.3889 92.5691 60.6754 91.779" stroke="#00c7ff" stroke-width="6" stroke-linecap="round"/>
<path d="M48.8923 94.0477C48.4872 94.4286 47.1585 96.3298 46.4927 95.3409" stroke="#00c7ff" stroke-width="6" stroke-linecap="round"/>
<path d="M32.8275 98.5077C33.372 96.4983 32.9964 97.8754 33.4703 96.1558C33.6367 95.5519 33.6345 95.5524 33.4397 96.0459C33.2855 96.4367 33.1349 96.8284 32.97 97.2143" stroke="#00c7ff" stroke-width="6" stroke-linecap="round"/>
<path d="M121.649 70.2126C120.243 73.636 121.737 70.686 122.451 71.7455" stroke="#00c7ff" stroke-width="6" stroke-linecap="round"/>
</g>
</svg>
