<svg width="57" height="53" viewBox="0 0 57 53" fill="none" xmlns="http://www.w3.org/2000/svg">
<g opacity="0.6">
<path d="M52.709 23.8978C49.4312 22.1719 45.9641 20.9369 42.5841 19.4355C42.2747 19.298 41.9757 19.1553 41.6482 19.0723C41.407 19.0112 41.2336 18.1689 41.1701 17.9641C40.1296 14.6078 39.5109 11.1392 38.2152 7.85491C37.7309 6.62728 37.3822 5.35164 36.9039 4.12564C36.7561 3.74692 36.6581 3.7398 36.3171 3.94287C33.9793 5.33516 32.5131 8.18254 31.1553 10.4221C30.1959 12.0047 29.2135 13.5715 28.3014 15.182C27.9801 15.7494 27.6547 16.5432 27.1903 17.0141C27.0937 17.112 27.0374 17.2358 26.9077 17.2964C26.6338 17.4245 26.2451 17.4114 25.9517 17.4693C25.0808 17.6414 24.2614 17.9794 23.4133 18.2316C22.0788 18.6285 20.7502 19.2232 19.4625 19.7591C18.6025 20.117 17.6436 20.2939 16.8401 20.7724C16.6737 20.8715 16.5079 20.9703 16.3342 21.0492C15.9963 21.2028 17.2079 22.005 17.2752 22.0502C19.3691 23.4551 21.415 24.588 23.7922 25.4516C25.1861 25.9579 26.5433 26.5362 27.899 27.1359C28.1613 27.2519 28.4095 27.3572 28.6862 27.4273C28.9102 27.4841 28.8389 28.3841 28.8491 28.5169C29.0888 31.6294 30.3185 34.6602 31.1863 37.639C31.2369 37.8126 31.2538 38.1253 31.3747 38.2654C31.495 38.4049 32.6099 37.3033 32.6792 37.2414C34.1499 35.9265 35.4435 34.489 36.5522 32.8521C37.5883 31.3222 38.3107 29.6447 39.1903 28.0306C39.7469 27.0092 39.8364 26.7791 41.0315 26.5675C43.3041 26.1651 45.5467 25.6213 47.8319 25.279C49.3325 25.0542 50.7413 24.8204 52.1747 24.3137" stroke="#00c7ff" stroke-width="6" stroke-linecap="round"/>
<path d="M16.312 49.1315C14.5311 45.5016 10.9863 40.0973 14.5906 36.4269C14.6964 36.3192 15.4572 35.562 14.8627 35.745C13.6017 36.133 12.3803 36.8487 11.2541 37.5194C10.3979 38.0293 9.64198 38.7574 8.61333 38.8942C8.04142 38.9703 7.46066 38.6416 6.96554 38.4005C6.15854 38.0075 5.37698 37.5561 4.65577 37.0211C4.62765 37.0003 3.9422 36.3237 3.86264 36.5224C3.75559 36.7898 4.67906 37.9025 4.80696 38.108C5.42347 39.0985 5.99621 40.0876 6.33889 41.212C6.9397 43.1834 6.57245 44.9223 5.46886 46.6278C5.08509 47.2209 4.67254 47.7947 4.31989 48.4072C3.9723 49.0109 5.14156 48.3367 5.35471 48.2395C6.88472 47.5421 8.24611 46.5589 9.9833 46.8129C11.1234 46.9796 12.2583 47.1514 13.3749 47.4344C13.5952 47.4903 13.1711 46.6085 13.1383 46.5409C12.6236 45.4798 11.797 44.5778 11.1159 43.6235C10.6462 42.9655 10.2083 42.2595 10.0335 41.4605C10.0031 41.3216 10.0659 40.8786 9.97032 40.7961" stroke="#00c7ff" stroke-width="6" stroke-linecap="round"/>
</g>
</svg>
