<svg width="80" height="79" viewBox="0 0 80 79" fill="none" xmlns="http://www.w3.org/2000/svg">
<g opacity="0.6">
<path opacity="0.6" d="M36.0334 31.2588C34.4894 34.6702 33.0656 38.1352 31.3485 41.4473C31.1666 41.7983 30.8077 42.1065 31.2298 42.3305C33.1514 43.3506 35.7661 43.0773 37.7757 43.2724C40.7339 43.5596 43.9455 43.3723 46.8752 44.2136C46.9187 44.2261 48.5736 44.7676 48.5117 44.4585C48.4361 44.0812 47.8094 43.5647 47.5827 43.2419C46.8574 42.2092 46.1259 41.1862 45.3809 40.1656C42.9441 36.8273 40.2313 33.8236 37.1473 31.0396" stroke="#00c7ff" stroke-width="6" stroke-linecap="round"/>
<path opacity="0.6" d="M67.4314 33.9465C63.4213 32.0543 59.7665 29.7672 56.1245 27.2532C51.6152 24.1405 46.676 21.4537 41.6747 19.2171C37.5291 17.3631 33.4167 15.7531 29.0246 14.555C25.8723 13.6952 22.969 13.2579 19.7438 14.0206C16.5371 14.7789 14.4582 16.7178 12.5359 19.3374C11.454 20.8117 10.6244 22.3472 9.93136 24.0279C9.24418 25.6944 8.40061 27.281 7.83466 28.9945C7.01781 31.4678 6.38188 34.2323 7.13207 36.7942C7.87332 39.3255 9.67733 41.68 11.5545 43.4615C14.7853 46.5277 18.8358 48.6437 22.637 50.9145C27.3335 53.7202 31.8975 56.6496 36.8385 59.018C40.882 60.9562 45.1562 63.1139 49.5186 64.2539C52.532 65.0413 55.2882 65.4021 58.3798 64.7739C62.0136 64.0356 65.0295 61.4543 67.6474 58.9328C69.0709 57.5616 70.0792 55.8698 71.1344 54.2152C72.3726 52.2737 73.1174 50.5256 73.3647 48.2539C73.7774 44.4608 72.4487 40.5367 70.0044 37.6541C68.3124 35.6587 65.9326 34.377 63.7536 32.9883" stroke="#00c7ff" stroke-width="6" stroke-linecap="round"/>
</g>
</svg>
