<svg width="2435" height="909" viewBox="0 0 2435 909" fill="none" xmlns="http://www.w3.org/2000/svg">
<path d="M606.798 163C365.063 327.215 153.824 466.5 174.386 541C205.299 653 698 283 750.386 385C791.988 466 243.5 769.5 243.5 769.5" stroke="#00c7ff" stroke-width="50"/>
<circle cx="667.298" cy="122" r="25" fill="#00c7ff"/>
<circle cx="605.298" cy="164" r="25" fill="#00c7ff"/>
<circle cx="243" cy="769.78" r="25" fill="#00c7ff"/>
<circle cx="181" cy="812" r="25" fill="#00c7ff"/>
<circle cx="463" cy="441" r="250" fill="white"/>
<path d="M175 541.991C205.913 653.991 698.613 283.991 751 385.991" stroke="#00c7ff" stroke-width="50"/>
<g style="mix-blend-mode:luminosity">
<path d="M552.393 429.929C561.175 419.373 566.636 407.25 566.636 395.297C566.636 381.076 563.33 368.935 554.471 360.368C545.62 351.809 531.417 347 510.041 347H347H346V348V534V535H347H518.06C539.501 535 555.018 528.829 565.174 518.664C575.327 508.503 580 494.474 580 478.997C580 458.75 568.418 441.723 552.393 429.929ZM417.493 394.171H480.641C484.173 394.171 487.826 394.187 490.611 395.356C491.967 395.925 493.076 396.755 493.856 397.971C494.639 399.192 495.143 400.885 495.143 403.269C495.143 405.652 494.639 407.345 493.856 408.566C493.076 409.782 491.967 410.612 490.611 411.182C487.826 412.35 484.173 412.366 480.641 412.366H417.493V394.171ZM494.005 482.514H417.493V464.851H494.005C497.536 464.851 501.195 464.866 503.983 466.006C505.344 466.562 506.45 467.37 507.227 468.549C508.005 469.731 508.507 471.37 508.507 473.683C508.507 475.995 508.005 477.635 507.227 478.817C506.45 479.995 505.344 480.804 503.983 481.36C501.195 482.499 497.536 482.514 494.005 482.514Z" fill="black"/>
<path d="M552.393 429.929C561.175 419.373 566.636 407.25 566.636 395.297C566.636 381.076 563.33 368.935 554.471 360.368C545.62 351.809 531.417 347 510.041 347H347H346V348V534V535H347H518.06C539.501 535 555.018 528.829 565.174 518.664C575.327 508.503 580 494.474 580 478.997C580 458.75 568.418 441.723 552.393 429.929ZM417.493 394.171H480.641C484.173 394.171 487.826 394.187 490.611 395.356C491.967 395.925 493.076 396.755 493.856 397.971C494.639 399.192 495.143 400.885 495.143 403.269C495.143 405.652 494.639 407.345 493.856 408.566C493.076 409.782 491.967 410.612 490.611 411.182C487.826 412.35 484.173 412.366 480.641 412.366H417.493V394.171ZM494.005 482.514H417.493V464.851H494.005C497.536 464.851 501.195 464.866 503.983 466.006C505.344 466.562 506.45 467.37 507.227 468.549C508.005 469.731 508.507 471.37 508.507 473.683C508.507 475.995 508.005 477.635 507.227 478.817C506.45 479.995 505.344 480.804 503.983 481.36C501.195 482.499 497.536 482.514 494.005 482.514Z" stroke="black" stroke-width="2"/>
</g>
<path d="M949.5 528H1040.5C1075.5 528 1099 508.75 1099 479.75C1099 461.5 1087 444 1069 436.25C1079 427.75 1085.5 414.5 1085.5 402.75C1085.5 375 1063 356.5 1029.25 356.5H949.5V528ZM983 425V386.5H1029.25C1043 386.5 1052 394.25 1052 405.75C1052 417.25 1043 425 1029.25 425H983ZM983 498V455H1040.75C1055.5 455 1065.5 463.75 1065.5 476.75C1065.5 489.5 1055.5 498 1040.5 498H983ZM1116.91 528H1146.91V454C1146.91 437.25 1160.16 426 1180.16 426H1190.41V403C1186.91 401.5 1181.66 400.5 1177.16 400.5C1165.66 400.5 1153.41 407.5 1146.91 417.75V403H1116.91V528ZM1256.5 531.5C1271.25 531.5 1287.5 524.75 1297 514.5V528H1327V403H1297V416.5C1287.5 406.25 1271.25 399.5 1256.5 399.5C1217.5 399.5 1191.5 426 1191.5 465.5C1191.5 505 1217.5 531.5 1256.5 531.5ZM1259.5 505C1236.75 505 1221.5 489.25 1221.5 465.5C1221.5 441.75 1236.75 426 1259.5 426C1282 426 1297 441.75 1297 465.5C1297 489.25 1282 505 1259.5 505ZM1362.75 574.5H1395L1462.5 403H1430.25L1399.5 481.5L1368.5 403H1336.5L1384.25 520L1362.75 574.5ZM1530.45 531.5C1545.7 531.5 1562.45 524.5 1571.95 514.25V528H1601.95V356.5H1571.95V416.75C1562.45 406.5 1545.7 399.5 1530.45 399.5C1490.95 399.5 1464.45 426 1464.45 465.5C1464.45 505 1490.95 531.5 1530.45 531.5ZM1533.45 505C1509.95 505 1494.45 489.25 1494.45 465.5C1494.45 441.75 1509.95 426 1533.45 426C1556.45 426 1571.95 441.75 1571.95 465.5C1571.95 489.25 1556.45 505 1533.45 505ZM1687.72 531.5C1718.22 531.5 1744.22 513 1752.47 485.5H1721.97C1716.22 498 1702.47 506.5 1687.72 506.5C1668.22 506.5 1653.22 493.5 1650.47 473.75H1752.97L1755.47 471.25V465.5C1755.47 426 1728.47 399.5 1687.72 399.5C1646.97 399.5 1619.97 426 1619.97 465.5C1619.97 505 1646.97 531.5 1687.72 531.5ZM1652.47 448.75C1658.22 433.25 1670.97 424.5 1687.72 424.5C1704.47 424.5 1717.22 433.25 1722.97 448.75H1652.47ZM1773.4 528H1803.4V453.75C1803.4 437 1815.65 426 1833.9 426C1852.15 426 1864.4 437 1864.4 453.75V528H1894.4V450.25C1894.4 419.75 1871.65 399.5 1837.4 399.5C1825.15 399.5 1811.65 404.5 1803.4 412.25V403H1773.4V528ZM1962.45 528H1995.95V386.5H2045.45V356.5H1912.95V386.5H1962.45V528ZM2086.41 528H2123.66L2147.91 417.75L2171.91 528H2209.41L2257.66 356.5H2223.16L2191.41 484.5L2164.16 356.5H2131.41L2104.16 484.5L2072.66 356.5H2037.91L2086.41 528Z" fill="white"/>
</svg>
