<svg width="130" height="91" viewBox="0 0 130 91" fill="none" xmlns="http://www.w3.org/2000/svg">
<g opacity="1">
<path d="M25.0771 55.1883C28.7264 49.4578 32.6425 44.0629 36.9357 38.8025C38.1889 37.267 42.7182 31.9304 45.182 34.3942C46.7313 35.9435 46.5382 38.7834 46.394 40.775C46.1789 43.7477 45.6823 46.7515 45.1701 49.6867C44.7213 52.259 43.9763 54.7442 43.3284 57.2677C43.2456 57.5899 43.1618 58.4441 42.8293 58.6104" stroke="#00c7ff" stroke-width="6" stroke-linecap="round"/>
<path d="M34.0605 48.6648C37.1747 49.264 40.1183 50.0231 43.1505 50.9106" stroke="#00c7ff" stroke-width="6" stroke-linecap="round"/>
<path d="M51.9189 61.9255C53.4234 57.8272 54.3033 53.4859 56.048 49.4906C57.3089 46.6034 58.5301 43.7839 59.9395 40.9651" stroke="#00c7ff" stroke-width="6" stroke-linecap="round"/>
<path d="M55.7695 54.8674C58.8011 55.3802 61.7724 56.1703 64.812 56.6379C66.0024 56.821 67.2175 56.8429 68.3885 57.1132" stroke="#00c7ff" stroke-width="6" stroke-linecap="round"/>
<path d="M72.8798 46.2051C71.6688 51.2144 70.3688 56.3229 68.6497 61.1887C67.9355 63.2103 66.9671 65.1565 66.5703 67.2724" stroke="#00c7ff" stroke-width="6" stroke-linecap="round"/>
<path d="M83.3604 47.8093C81.515 53.2496 79.7808 58.8269 77.3836 64.0643C76.7021 65.5533 75.8493 67.0369 75.5537 68.6628" stroke="#00c7ff" stroke-width="6" stroke-linecap="round"/>
<path d="M80.9004 61.1768C83.4244 61.9636 85.8995 62.8122 88.5051 63.2562C89.682 63.4567 90.798 63.7648 91.9153 64.1711" stroke="#00c7ff" stroke-width="6" stroke-linecap="round"/>
<path d="M95.5508 51.7661C94.8105 55.0708 94.2393 58.4944 93.2338 61.7354C92.6649 63.5687 91.7592 65.3069 90.988 67.0586C89.834 69.68 88.7294 72.2174 87.958 74.9723" stroke="#00c7ff" stroke-width="6" stroke-linecap="round"/>
<path d="M98.6104 77.323C99.0832 77.0421 100.823 75.6197 101.507 75.7616C101.896 75.8425 101.086 77.3403 101.024 77.4541C100.955 77.5801 100.247 78.8802 100.005 78.3957" stroke="#00c7ff" stroke-width="6" stroke-linecap="round"/>
<path d="M112.019 82.3647C112.148 82.2581 114.895 79.6771 114.998 80.5292C115.078 81.1874 114.886 82.0247 114.569 82.603C114.009 83.6263 113.114 83.2827 112.769 82.3647" stroke="#00c7ff" stroke-width="6" stroke-linecap="round"/>
<path d="M123.39 87.2991C123.907 86.6287 125.48 84.2951 126.024 86.0119C126.237 86.6844 126.037 87.0945 125.642 87.6209" stroke="#00c7ff" stroke-width="6" stroke-linecap="round"/>
<path d="M3 24.6283C8.52136 26.706 13.6598 29.4316 19.1238 31.5966C19.9462 31.9225 21.7097 32.8039 22.637 32.5389C24.9282 31.8843 24.9226 26.9624 25.0684 25.2914C25.5283 20.0208 25.7304 14.729 26.1969 9.4584C26.2399 8.97219 26.1123 6.50155 26.8599 6.88743C30.2648 8.64479 33.2761 11.5215 36.248 13.9023C38.709 15.8738 41.2981 17.6986 43.8213 19.591C44.6255 20.1942 46.0575 21.2779 47.1368 21.2779C48.5675 21.2779 49.4721 14.8658 49.7311 14.0187C50.8709 10.2904 52.3994 6.80246 54.2099 3.36254C54.7057 2.42048 55.5127 3.55835 55.9549 4.02563C59.9177 8.21276 60.9291 14.1093 62.6324 19.4165C63.4056 21.8257 64.0413 25.5485 65.9363 27.4435C67.7756 29.2829 70.5191 27.2973 72.0089 26.0941C74.7789 23.8568 76.8849 21.0464 79.1518 18.3346C81.9148 15.0293 85.0241 12.0994 87.9582 8.95817C88.908 7.94128 89.8969 6.62193 91.1573 5.99166" stroke="#00c7ff" stroke-width="6" stroke-linecap="round"/>
</g>
</svg>
