<svg width="151" height="83" viewBox="0 0 151 83" fill="none" xmlns="http://www.w3.org/2000/svg">
<g opacity="1">
<path d="M43.5333 24.094C40.9785 28.6761 38.6366 34.1385 42.0434 38.9853C43.5825 41.1749 45.9019 43.1284 48.6896 43.1622C54.3192 43.2304 56.8526 38.2073 57.3615 33.3184C57.9734 27.4395 55.8162 21.487 49.309 20.4277C47.0127 20.0539 39.9091 21.3603 41.2733 24.998" stroke="#00c7ff" stroke-width="6" stroke-linecap="round"/>
<path d="M65.531 14.451C64.7374 20.6212 63.4791 28.4327 69.3815 32.6653C73.0266 35.2792 78.1386 36.9845 81.5355 33.0002C85.918 27.8598 85.926 20.954 81.569 15.7568C79.0393 12.7392 72.9933 8.22938 68.9964 11.1362" stroke="#00c7ff" stroke-width="6" stroke-linecap="round"/>
<path d="M89.9395 8.57471C93.0368 15.0659 95.7747 21.6209 98.377 28.3125" stroke="#00c7ff" stroke-width="6" stroke-linecap="round"/>
<path d="M97.3223 18.3685C102.295 16.6897 107.123 15.1978 111.033 11.5884" stroke="#00c7ff" stroke-width="6" stroke-linecap="round"/>
<path d="M107.116 3C109.229 8.05703 111.28 13.1338 113.344 18.2093C113.752 19.214 114.264 20.1733 114.499 21.2311" stroke="#00c7ff" stroke-width="6" stroke-linecap="round"/>
<path d="M123.985 18.4964C124.228 18.3394 125.405 17.2948 125.718 17.7897C125.98 18.2031 125.457 18.7011 125.193 18.974C124.759 19.4224 124.352 19.676 123.985 19.0648" stroke="#00c7ff" stroke-width="6" stroke-linecap="round"/>
<path d="M134.502 15.0855C134.776 14.6432 135.185 13.4734 135.876 13.7906C136.103 13.8949 136.254 14.158 136.16 14.4065C136.082 14.6121 135.325 15.3095 135.141 14.9434" stroke="#00c7ff" stroke-width="6" stroke-linecap="round"/>
<path d="M144.165 11.6034C144.763 10.8714 146.562 7.88695 147.525 9.88226C147.778 10.4081 147.903 10.962 147.789 11.5324" stroke="#00c7ff" stroke-width="6" stroke-linecap="round"/>
<path d="M3 50.1352C8.83304 48.7543 14.5765 46.5137 20.5041 45.6017C23.5711 45.1299 21.3974 48.8482 20.6773 50.9852C20.3562 51.9382 12.7706 69.6857 17.9856 69.6857C23.5026 69.6857 29.3694 66.2249 34.4508 64.3022C35.2869 63.9858 38.8708 61.9324 39.7083 63.0744C40.6543 64.3644 43.3092 80.1156 45.3751 78.9887C47.203 77.9916 48.8241 74.19 49.8456 72.5505C52.2718 68.6567 53.937 64.3735 56.3624 60.4928C57.7387 58.2908 58.4888 56.4576 60.5181 58.8558C61.6484 60.1916 73.2956 76.4464 75.2832 72.8024C78.0947 67.6481 77.4029 60.5422 78.6518 54.889C79.2451 52.2037 79.6238 51.7417 82.0834 53.0945C89.3207 57.075 96.2404 61.7629 103.586 65.4356" stroke="#00c7ff" stroke-width="6" stroke-linecap="round"/>
</g>
</svg>
