<svg width="133" height="63" viewBox="0 0 133 63" fill="none" xmlns="http://www.w3.org/2000/svg">
<path d="M3.47363 38.0562C12.8301 31.2828 21.5852 24.4371 32.7182 20.9496C43.3808 17.6095 54.6576 15.8477 65.8309 15.8477C75.4109 15.8477 84.9325 17.4077 93.7415 21.183C96.0341 22.1656 98.8425 23.0601 100.411 25.1512" stroke="#00c7ff" stroke-width="6" stroke-linecap="round"/>
<path d="M116.017 19.1489C120.41 18.3722 124.811 17.7164 129.222 17.0481" stroke="#00c7ff" stroke-width="6" stroke-linecap="round"/>
<path d="M118.117 31.7537C120.601 33.5832 123.099 35.3817 125.62 37.1557" stroke="#00c7ff" stroke-width="6" stroke-linecap="round"/>
<path d="M109.414 41.3574C108.994 47.3673 108.432 53.3626 107.913 59.3643" stroke="#00c7ff" stroke-width="6" stroke-linecap="round"/>
<path d="M93.8077 41.6575L89.0059 44.3585" stroke="#00c7ff" stroke-width="6" stroke-linecap="round"/>
<path d="M104.912 13.7468L105.512 3.84302" stroke="#00c7ff" stroke-width="6" stroke-linecap="round"/>
</svg>
