<svg width="69" height="64" viewBox="0 0 69 64" fill="none" xmlns="http://www.w3.org/2000/svg">
<path d="M3.5498 28.7484C15.266 20.0868 26.4485 10.6775 38.9648 3.16769C39.9895 2.55283 38.4027 5.51155 37.8721 6.58235C35.8037 10.7561 33.8279 14.9727 31.7647 19.1483C27.8271 27.1172 23.6174 35.3119 18.7695 42.7778C18.4446 43.2781 17.4609 44.6338 18.0085 44.3973C19.9063 43.5778 21.3891 42.0147 23.0231 40.7485C28.3767 36.6002 33.6405 32.3405 39.0623 28.2801C44.6301 24.1104 50.2838 20.0408 56.2137 16.3971C58.4416 15.0281 61.8366 12.4806 64.6235 12.2019C66.356 12.0287 63.212 15.4391 62.0869 16.7678C55.8488 24.135 49.2994 31.2005 43.3746 38.8363C38.478 45.1469 32.3729 51.7769 31.9988 60.0072" stroke="#00c7ff" stroke-width="6" stroke-linecap="round"/>
</svg>
