<svg width="75" height="59" viewBox="0 0 75 59" fill="none" xmlns="http://www.w3.org/2000/svg">
<path opacity="0.5" d="M3.77344 47.9722C6.35772 47.3833 9.25017 47.011 11.6605 45.8268C12.7571 45.288 13.7613 44.5744 14.8684 44.0491C16.2407 43.3981 17.5937 42.8027 18.9345 42.0876C19.8028 41.6245 19.9948 41.4572 19.3228 40.9433C18.4666 40.2886 17.6051 39.766 16.6869 39.1861C15.1551 38.2187 14.4873 36.8855 13.8161 35.2222C12.2383 31.3119 10.6768 25.8181 11.1701 21.5629C13.0152 5.64901 32.2815 1.97959 45.1396 4.60368C52.4859 6.10294 60.7095 9.29719 65.9708 14.8507C70.0086 19.1129 72.2779 25.724 71.4059 31.6464C70.6162 37.0098 67.9347 41.0059 63.9275 44.6315C60.0277 48.1599 55.0981 51.3586 49.9106 52.5287C44.5839 53.7302 39.5791 53.4891 34.208 53.4891C33.3288 53.4891 32.769 53.9107 31.9502 54.2655C29.6903 55.2448 27.7974 55.8797 25.2687 55.8797C21.1643 55.8797 17.1526 54.6344 13.2951 53.3052C11.3347 52.6296 9.56182 51.5567 7.63523 50.9145" stroke="#00c7ff" stroke-width="6" stroke-linecap="round"/>
</svg>
