<svg width="48" height="55" viewBox="0 0 48 55" fill="none" xmlns="http://www.w3.org/2000/svg">
<path d="M3.49902 41.8495C5.26115 44.5605 7.94001 49.4412 11.1622 50.6634C11.6103 50.8334 12.9681 51.3969 13.1499 50.6242C13.8947 47.4585 11.9672 43.0854 11.1753 40.071C10.7652 38.51 9.27381 35.2012 9.88062 33.5325C10.066 33.0227 15.4884 39.6819 15.8438 40.2018C18.179 43.6177 19.8974 47.9918 23.2977 50.5327C23.6104 50.7664 25.4329 52.0806 25.5731 51.0296C25.7388 49.7869 24.7041 47.9491 24.2654 46.9234C22.7225 43.316 21.086 39.7294 19.4269 36.1741C17.1902 31.3811 14.5658 26.7918 13.1107 21.6716C12.9213 21.0055 12.034 18.7853 12.9145 18.2193C15.1195 16.8018 21.916 25.2506 22.9054 26.3532C28.1055 32.1486 32.741 38.4263 37.9309 44.2426C39.5571 46.065 41.2947 48.2453 43.5933 49.2773C45.3114 50.0487 43.3904 43.2887 43.384 43.2618C41.1782 33.9687 38.2597 24.8603 35.7732 15.6431C34.5995 11.2923 34.3264 7.91332 34.8055 3.48145" stroke="#00c7ff" stroke-width="6" stroke-linecap="round"/>
</svg>
