<svg width="110" height="11" viewBox="0 0 110 11" fill="none" xmlns="http://www.w3.org/2000/svg">
<path d="M1.60389 5.34465C0.13738 6.1157 -0.426399 7.9296 0.344652 9.39611C1.1157 10.8626 2.9296 11.4264 4.39611 10.6553L1.60389 5.34465ZM106.595 10.9726C108.237 11.1961 109.749 10.0465 109.973 8.40485C110.196 6.76315 109.047 5.25103 107.405 5.02744L106.595 10.9726ZM4.39611 10.6553C9.09971 8.18232 17.6655 6.77789 28.4239 6.25029C39.0217 5.73055 51.2313 6.07572 62.8434 6.7758C74.4436 7.47515 85.3871 8.52482 93.4345 9.40036C97.4567 9.83797 100.752 10.2317 103.039 10.5157C104.183 10.6577 105.074 10.7723 105.679 10.8512C105.981 10.8906 106.211 10.9211 106.366 10.9417C106.443 10.952 106.501 10.9598 106.539 10.965C106.558 10.9676 106.573 10.9695 106.582 10.9708C106.587 10.9714 106.59 10.9719 106.592 10.9722C106.593 10.9723 106.594 10.9724 106.595 10.9725C106.595 10.9725 106.595 10.9726 107 8C107.405 5.02744 107.404 5.02737 107.403 5.02725C107.403 5.02715 107.402 5.02699 107.4 5.0268C107.397 5.02641 107.393 5.02585 107.388 5.02513C107.377 5.02368 107.361 5.02157 107.341 5.01879C107.3 5.01325 107.239 5.00508 107.159 4.99443C106.999 4.97312 106.763 4.94184 106.455 4.90164C105.839 4.82123 104.935 4.70507 103.779 4.56144C101.465 4.27418 98.1396 3.87687 94.0834 3.43556C85.9742 2.55329 74.9297 1.49357 63.2045 0.786671C51.4912 0.0804931 39.0381 -0.277465 28.13 0.257489C17.3823 0.784573 7.59886 2.19266 1.60389 5.34465L4.39611 10.6553Z" fill="#00c7ff"/>
</svg>
