<svg width="106" height="85" viewBox="0 0 106 85" fill="none" xmlns="http://www.w3.org/2000/svg">
<g opacity="0.6">
<path d="M29.4814 23.1003C30.1601 25.4592 30.9119 27.809 31.0401 30.2755C31.0854 31.1491 31.0209 32.0403 31.1867 32.9026C31.1997 32.9705 31.2487 33.6503 31.3344 33.6626C32.2024 33.7873 33.6488 32.6704 34.3466 32.2953C37.2555 30.7318 40.5524 29.3901 43.7524 28.5532C44.4171 28.3794 46.3539 27.8113 45.7815 28.1914C43.8444 29.4774 41.4269 30.3212 39.3563 31.3801C37.2594 32.4525 35.2287 33.6194 33.1565 34.7288C32.5274 35.0657 32.1845 35.214 31.8101 35.8627C30.5381 38.0664 29.6433 40.8193 28.0353 42.7828" stroke="#00c7ff" stroke-width="6" stroke-linecap="round"/>
<path d="M39.3191 47.8212C43.7256 43.7074 47.6834 39.1854 52.2643 35.2457C52.777 34.8048 57.2255 30.8867 58.0403 31.5541C58.4511 31.8905 57.7242 34.5583 57.6628 34.9562C57.2542 37.6031 56.8779 40.2576 56.3622 42.8866C55.7699 45.9063 54.7232 48.7405 53.6382 51.5848" stroke="#00c7ff" stroke-width="6" stroke-linecap="round"/>
<path d="M47.9121 40.4802C50.0475 41.4637 52.6822 42.2115 54.485 43.7987" stroke="#00c7ff" stroke-width="6" stroke-linecap="round"/>
<path d="M66.6855 37.2742C67.0206 39.5788 67.4407 41.8054 67.197 44.1325C67.0763 45.2842 66.8768 46.4293 66.7086 47.5749C66.6338 48.0844 66.4697 48.7298 66.8108 49.1456C67.965 50.5521 72.1851 48.7458 73.4327 48.3627C75.5014 47.7274 77.5367 46.9329 79.653 46.4645C79.8855 46.413 81.2841 45.9692 81.5521 46.1314C81.7444 46.2478 81.1303 46.2886 80.914 46.3502C80.2697 46.534 79.6331 46.7332 78.9986 46.9485C77.0933 47.5948 75.2074 48.1558 73.2586 48.6503C71.8303 49.0127 70.4379 49.4971 69.0102 49.8613C68.5566 49.977 67.9166 50.0512 67.5287 50.3398C66.7951 50.8856 66.7043 51.8867 66.3688 52.7365C65.5233 54.878 64.0655 56.6406 63.1434 58.7056" stroke="#00c7ff" stroke-width="6" stroke-linecap="round"/>
<path d="M40.6505 7.84158C40.2341 9.68151 39.7799 11.54 39.2647 13.3551C39.0574 14.0854 38.8742 15.2022 38.4196 15.8376C37.9284 16.524 36.1913 14.8523 35.7582 14.5305C33.7969 13.0733 31.5775 12.1161 29.4593 10.9326C28.1875 10.2221 27.1006 9.38602 25.99 8.47642C25.6946 8.23457 25.8172 10.2084 25.8174 10.3628C25.8184 11.4309 25.8406 12.4874 25.8872 13.5537C25.9116 14.111 25.8921 14.9133 25.3749 15.2396C23.6741 16.3127 20.9548 16.0679 19.0376 16.3703C16.4914 16.7719 13.9722 17.4087 11.4746 18.0373C10.227 18.3513 10.0103 18.4768 10.6872 19.7191C11.8657 21.8825 13.5587 23.5843 15.0498 25.5163C15.4448 26.0281 16.5125 27.2069 16.2032 27.9643C15.456 29.7939 13.2654 31.3172 11.821 32.5599C11.4861 32.848 9.34465 34.2487 9.78847 34.9917C10.5996 36.3496 12.515 36.8426 13.9235 37.2353C14.7612 37.4688 17.0947 37.7774 17.4979 38.778C18.0279 40.0937 16.4835 42.6852 15.9511 43.7828C14.8507 46.0515 13.2591 48.4546 12.9883 51.0319C12.8822 52.0416 13.202 53.0813 14.3193 53.273C17.1546 53.7596 20.0674 52.9392 22.9223 53.2073C23.8743 53.2967 25.2483 53.4208 25.653 54.4647C25.9764 55.2989 25.9772 56.3005 26.1744 57.1692C26.5046 58.6242 26.8691 60.0703 27.1936 61.5268C27.445 62.6551 27.6496 64.6029 28.696 65.3543C30.9713 66.9883 34.5808 65.029 36.8191 64.359C38.5577 63.8386 40.4218 63.2284 42.2615 63.2656C44.7461 63.3158 45.8044 67.0289 46.5932 68.9104C47.6925 71.5328 49.5217 77.6209 53.6633 75.0079C55.605 73.7828 57.1678 72.1718 58.9473 70.7616C59.9575 69.9611 61.0344 71.1941 61.6547 71.8975C63.6513 74.1613 65.9975 76.6874 68.5197 78.3554C70.0709 79.3811 72.1307 80.9676 74.1272 80.8668C75.7149 80.7866 76.052 77.9478 76.2903 76.8951C76.9825 73.8362 77.7198 70.417 77.4269 67.2492C77.3495 66.4123 77.0067 65.2068 77.2889 64.3916C77.3553 64.1996 83.5337 66.2677 84.059 66.3887C86.4921 66.9494 89.1644 67.346 91.6663 67.3837C91.9607 67.3881 90.8951 65.2981 90.8218 65.1437C90.0789 63.5786 89.4058 61.9839 88.6002 60.4486C87.9651 59.2383 87.2048 57.9912 86.747 56.6943C86.4363 55.8143 91.0206 55.1636 91.5267 55.0295C92.2011 54.8509 100.523 53.1023 98.5096 51.3348C97.0483 50.0522 95.2368 49.7512 93.5489 48.9189C92.8106 48.5549 91.5228 48.0325 91.2883 47.1577C91.0539 46.2835 92.0019 44.9085 92.3468 44.1494C93.3821 41.8715 94.6294 39.556 95.1038 37.0717C95.3735 35.659 95.6481 34.124 94.5946 32.9967C93.1619 31.4637 89.9154 32.7788 88.2845 33.2689C86.7014 33.7446 85.1566 34.4599 83.5414 34.8039C82.8966 34.9412 83.0531 33.4728 83.008 33.0193C82.7499 30.4263 82.759 27.9931 81.8288 25.5159C81.5366 24.7376 81.147 22.4804 80.2972 22.0741C78.7719 21.3447 76.4029 23.3611 75.2526 24.0422C73.8869 24.8509 72.6114 25.9622 71.1207 26.5365C70.7404 26.6831 69.9023 27.1327 69.4677 27.0343C68.9062 26.9073 68.4601 24.3096 68.2977 23.9214C67.0711 20.9903 66.125 17.9674 64.8733 15.0379C64.14 13.3219 62.7172 11.346 60.956 10.5477C59.3893 9.83748 58.0448 11.4676 56.9321 12.3399C54.6822 14.1036 52.5348 15.9945 50.124 17.5418C49.6435 17.8502 49.4296 18.2698 49.1348 17.7393C48.0261 15.7449 47.0499 13.4488 45.5565 11.6547C44.8017 10.7478 43.7873 9.70391 43.3594 8.58539" stroke="#00c7ff" stroke-width="6" stroke-linecap="round"/>
</g>
</svg>
